<svg width="36" height="27" viewBox="0 0 36 27" fill="none" xmlns="http://www.w3.org/2000/svg">
<path d="M35.4243 11.6275L28.901 3.23314C28.3779 2.56687 27.5924 2.18459 26.7516 2.18459H19.6392V0.546521C19.6392 0.241018 19.3998 0 19.093 0C18.7877 0 18.5468 0.239493 18.5468 0.546521V2.18459H2.72781C1.22277 2.18459 0 3.40662 0 4.91417V20.1988C0 21.7048 1.22124 22.9283 2.72781 22.9283H4.4185C4.69159 24.7736 6.26261 26.2029 8.18189 26.2029C10.1027 26.2029 11.6737 24.7721 11.9453 22.9283H24.0547C24.3278 24.7736 25.8988 26.2029 27.8181 26.2029C29.7389 26.2029 31.3099 24.7721 31.5815 22.9283H33.2722C34.7772 22.9283 36 21.7063 36 20.1988V13.3105C36 12.7102 35.7929 12.1099 35.4216 11.6402L35.4243 11.6275ZM28.0495 3.90834L34.3442 12.0079H24.0022V3.27402H26.7515C27.2639 3.27402 27.7334 3.50276 28.0386 3.90653L28.0495 3.90834ZM8.18315 25.1093C6.67811 25.1093 5.45534 23.8873 5.45534 22.3797C5.45534 20.8737 6.67657 19.6502 8.18315 19.6502C9.68819 19.6502 10.911 20.8722 10.911 22.3797C10.911 23.8858 9.68972 25.1093 8.18315 25.1093ZM27.8209 25.1093C26.3159 25.1093 25.0931 23.8873 25.0931 22.3797C25.0931 20.8737 26.3144 19.6502 27.8209 19.6502C29.326 19.6502 30.5487 20.8722 30.5487 22.3797C30.5487 23.8858 29.3275 25.1093 27.8209 25.1093ZM34.9121 20.1967C34.9121 21.1025 34.1819 21.8348 33.2751 21.8348H31.5952C31.5952 21.8348 31.5737 21.758 31.563 21.715C31.5415 21.6168 31.52 21.5185 31.4863 21.4202C31.4541 21.2898 31.4096 21.147 31.3666 21.0272C31.3344 20.929 31.2899 20.8415 31.2469 20.7432C31.1917 20.6235 31.1273 20.5037 31.0506 20.3825C30.9953 20.2949 30.9416 20.2182 30.8864 20.1307C30.8097 20.0217 30.7222 19.9234 30.6241 19.8144C30.5581 19.7377 30.4936 19.6732 30.4169 19.5964C30.3187 19.4982 30.2098 19.4214 30.1009 19.3339C30.0242 19.2786 29.9475 19.2142 29.8616 19.1589C29.7419 19.0821 29.6099 19.0177 29.4795 18.9516C29.3921 18.9087 29.3154 18.8641 29.2279 18.8319C29.0745 18.7766 28.9226 18.7336 28.7692 18.6907C28.6925 18.6692 28.6158 18.6354 28.5406 18.6246C28.3013 18.5817 28.0604 18.5479 27.798 18.5479C27.5357 18.5479 27.2964 18.5801 27.0555 18.6246C26.9788 18.6354 26.9021 18.6676 26.8269 18.6907C26.6735 18.7336 26.5109 18.7782 26.3682 18.8319C26.2807 18.8641 26.204 18.9087 26.1166 18.9516C25.9862 19.0177 25.8542 19.0821 25.7345 19.1589C25.6471 19.2142 25.5811 19.2679 25.4952 19.3339C25.3863 19.4214 25.2774 19.4982 25.1792 19.5964C25.1025 19.6624 25.038 19.7377 24.972 19.8144C24.8846 19.9127 24.7971 20.0217 24.7097 20.1307C24.6545 20.2074 24.59 20.2949 24.5455 20.3825C24.4688 20.5022 24.4151 20.6112 24.3492 20.7432C24.3062 20.8307 24.2617 20.929 24.2295 21.0272C24.1743 21.1577 24.142 21.2898 24.1098 21.4202C24.0883 21.5185 24.0546 21.6168 24.0331 21.715C24.0331 21.758 24.0116 21.7918 24.0009 21.8348H11.9237C11.9237 21.8348 11.9022 21.758 11.8914 21.715C11.87 21.6168 11.8485 21.5185 11.8147 21.4202C11.7825 21.2898 11.738 21.147 11.6951 21.0272C11.6628 20.929 11.6183 20.8415 11.5754 20.7432C11.5202 20.6235 11.4557 20.5037 11.379 20.3825C11.3238 20.2949 11.2701 20.2182 11.2148 20.1307C11.1381 20.0217 11.0507 19.9234 10.9525 19.8144C10.8865 19.7377 10.8221 19.6732 10.7454 19.5964C10.6472 19.4982 10.5383 19.4214 10.4293 19.3339C10.3526 19.2786 10.2759 19.2142 10.19 19.1589C10.0703 19.0821 9.93839 19.0177 9.80798 18.9516C9.72053 18.9087 9.64382 18.8641 9.55637 18.8319C9.40296 18.7766 9.25107 18.7336 9.09763 18.6907C9.02093 18.6692 8.94421 18.6354 8.86904 18.6246C8.6297 18.5817 8.38882 18.5479 8.12649 18.5479C7.86417 18.5479 7.62483 18.5801 7.38395 18.6246C7.30724 18.6354 7.23053 18.6676 7.15535 18.6907C7.00194 18.7336 6.83931 18.7782 6.69662 18.8319C6.60916 18.8641 6.53246 18.9087 6.44501 18.9516C6.3146 19.0177 6.18266 19.0821 6.06299 19.1589C5.97554 19.2142 5.90957 19.2679 5.82366 19.3339C5.71473 19.4214 5.6058 19.4982 5.50761 19.5964C5.4309 19.6624 5.36646 19.7377 5.30049 19.8144C5.21304 19.9127 5.1256 20.0217 5.03814 20.1307C4.98291 20.2074 4.91848 20.2949 4.87398 20.3825C4.79728 20.5022 4.74358 20.6112 4.67761 20.7432C4.63465 20.8307 4.59016 20.929 4.55794 21.0272C4.50271 21.1577 4.47049 21.2898 4.43827 21.4202C4.41679 21.5185 4.38304 21.6168 4.36156 21.715C4.36156 21.758 4.34008 21.7918 4.32934 21.8348H2.64941C1.74422 21.8348 1.0124 21.104 1.0124 20.1967V4.91209C1.0124 4.00632 1.74269 3.27402 2.64941 3.27402H22.8335V12.5526C22.8335 12.8581 23.0729 13.0991 23.3797 13.0991H34.8018C34.8018 13.1652 34.834 13.2296 34.834 13.3064V20.1947L34.9121 20.1967Z" fill="black"/>
<path d="M13.4829 6.10205C13.4033 6.10704 13.3312 6.14974 13.2909 6.2156L11.8009 8.6597H9.2409C9.15485 8.6597 9.07529 8.70331 9.03227 8.77371C8.98924 8.84456 8.98924 8.93132 9.03227 9.00216L10.3123 11.1015L9.03227 13.2009C8.98924 13.2713 8.98924 13.3585 9.03227 13.4289C9.07529 13.4997 9.15486 13.5429 9.2409 13.5433H11.8009L13.2909 15.9874C13.3344 16.0578 13.414 16.1014 13.5 16.1014C13.586 16.1014 13.6656 16.0578 13.7091 15.9874L15.1996 13.5433H17.7591C17.8451 13.5433 17.9247 13.4997 17.9677 13.4289C18.0108 13.3585 18.0108 13.2713 17.9677 13.2009L16.6877 11.1015L17.9677 9.00216C18.0108 8.93131 18.0108 8.84455 17.9677 8.77371C17.9247 8.70331 17.8451 8.6597 17.7591 8.6597H15.1996L13.7091 6.2156C13.6628 6.13974 13.575 6.09569 13.4829 6.10205ZM13.5 6.78652L14.6422 8.6596H12.3579L13.5 6.78652ZM9.65901 9.11656H11.5228L10.5911 10.645L9.65901 9.11656ZM12.0797 9.11656H14.921L16.1312 11.1014L14.921 13.0862H12.0797L10.8691 11.1014L12.0797 9.11656ZM15.4775 9.11656H17.3412L16.4096 10.645L15.4775 9.11656ZM10.5905 11.5583L11.5222 13.0868H9.65844L10.5905 11.5583ZM16.4096 11.5583L17.3413 13.0868H15.4775L16.4096 11.5583ZM12.3577 13.5432H14.642L13.4998 15.4162L12.3577 13.5432Z" fill="black"/>
</svg>
