<svg width="141" height="141" viewBox="0 0 141 141" fill="none" xmlns="http://www.w3.org/2000/svg">
<circle cx="70" cy="70" r="70" fill="white"/>
<path d="M140 70.5C140 32.1162 108.884 1 70.5 1C32.1162 1 1 32.1162 1 70.5C1 108.884 32.1162 140 70.5 140V141C31.5639 141 0 109.436 0 70.5C0 31.5639 31.5639 0 70.5 0C109.436 0 141 31.5639 141 70.5C141 109.436 109.436 141 70.5 141V140C108.884 140 140 108.884 140 70.5Z" fill="black"/>
<path d="M19.8693 117.24C19.7636 117.648 19.3473 117.893 18.9394 117.787C18.5315 117.681 18.2866 117.265 18.3923 116.857C19.491 112.608 21.1844 109.458 23.4371 106.951C25.6839 104.451 28.4681 102.61 31.7624 100.966C34.0414 99.8288 36.3001 98.9931 38.4538 98.1962C42.0572 96.8629 45.3571 95.6419 47.8318 93.2996C47.8263 92.9589 47.8324 92.6269 47.8523 92.3048C47.9988 89.9396 48.9007 87.8461 50.4665 86.1494C51.8755 84.6226 53.8174 83.4254 56.2229 82.6518C55.7914 79.7863 55.0359 76.8919 54.0653 74.4461C54.0106 74.3082 53.999 74.1638 54.024 74.0279C53.4633 72.8427 52.9706 71.6149 52.5507 70.3669C52.4606 74.0414 51.9636 77.1198 50.0689 79.0145C49.77 79.3134 49.2854 79.3134 48.9865 79.0145C48.6876 78.7157 48.6876 78.231 48.9865 77.9321C51.192 75.7267 51.1028 71.037 51.001 65.6831C50.9842 64.8002 50.9672 63.9001 50.9598 62.9896C50.9594 62.9786 50.9593 62.9677 50.9595 62.9568C50.8972 55.137 51.5538 46.5482 59.2324 41.3631C61.7654 39.6527 63.6521 40.9362 65.5137 42.2027C67.02 43.2275 68.5049 44.2376 70.2601 42.6938C75.3219 38.2421 78.9192 38.5138 81.4849 41.431C85.0515 45.4863 86.2733 55.0684 86.71 63.5627C86.7134 63.589 86.7154 63.6157 86.716 63.6427L86.7183 63.7287C86.9219 67.7777 86.9492 71.5692 86.9692 74.3823C86.9773 75.5268 86.9843 76.5063 87.0019 77.2818C87.0101 77.7029 86.6755 78.051 86.2544 78.0592C85.8333 78.0675 85.4852 77.7328 85.477 77.3117C85.4596 76.5471 85.4526 75.5515 85.4443 74.3883C85.4382 73.5384 85.4315 72.596 85.4195 71.5846C85.1473 72.3952 84.835 73.2008 84.4844 73.9929C84.5941 74.1961 84.6106 74.4464 84.5073 74.6726C82.9783 78.0168 82.5296 80.9565 82.696 83.7934C82.8324 86.1173 83.386 88.4011 84.1003 90.7902C84.6452 88.731 84.7039 86.752 84.0124 85.1999C83.7757 84.6684 83.4486 84.1856 83.0199 83.7661C82.8099 83.578 82.7125 83.2803 82.7938 82.9905C82.9078 82.5842 83.3295 82.3473 83.7357 82.4613C86.4347 83.2214 88.5938 84.491 90.1243 86.1494C91.6901 87.8461 92.5921 89.9396 92.7385 92.3048C92.7623 92.6894 92.7664 93.0881 92.7544 93.4991C95.7033 95.9364 99.2261 97.2514 103.144 98.714C104.954 99.3895 106.846 100.096 108.798 100.951C112.445 102.549 115.26 104.416 117.447 106.973C119.633 109.529 121.169 112.748 122.254 117.05C122.357 117.46 122.108 117.875 121.698 117.977C121.289 118.079 120.874 117.83 120.771 117.421C119.745 113.355 118.312 110.334 116.287 107.965C114.262 105.598 111.624 103.856 108.188 102.35C106.25 101.501 104.39 100.807 102.612 100.143C98.9168 98.7638 95.5617 97.5112 92.6143 95.3266C92.4526 96.7198 92.1782 98.2082 91.8971 99.733C91.4612 102.097 91.0087 104.551 90.9576 106.788C90.9128 108.756 90.1602 109.706 89.0496 110.079C88.061 110.412 86.854 110.196 85.6598 109.852C83.8371 109.327 81.6804 108.677 79.8065 107.646C78.112 106.715 76.6486 105.478 75.8402 103.758C74.0717 104.854 73.0064 106.329 72.3323 108.226C71.5069 110.549 71.24 113.531 71.0092 117.212C70.9827 117.633 70.6199 117.953 70.1989 117.927C69.7802 117.901 69.4615 117.542 69.4839 117.124C69.4636 114.314 69.0131 111.409 67.9019 108.803C67.1368 107.009 66.0554 105.357 64.581 103.977C63.7875 105.344 62.5736 106.471 61.1283 107.385C59.0899 108.675 56.5863 109.543 54.1777 110.066C52.9448 110.334 51.9257 110.497 51.0852 110.089C50.1913 109.656 49.6767 108.701 49.6332 106.788C49.5821 104.551 49.1296 102.097 48.6937 99.7329C48.4046 98.1649 48.1226 96.6354 47.9631 95.2084C45.42 97.2484 42.3253 98.3936 38.98 99.6314C36.871 100.412 34.6592 101.23 32.4441 102.335C29.3094 103.899 26.6727 105.637 24.5733 107.974C22.4797 110.304 20.9013 113.249 19.8693 117.24ZM36.8749 93.723C36.647 94.078 36.1745 94.1811 35.8194 93.9532C35.4644 93.7253 35.3613 93.2528 35.5892 92.8977C42.8622 81.5607 42.8007 65.6997 42.7442 51.1212C42.7418 50.5027 42.7394 49.8865 42.7376 49.273C42.7263 45.4869 43.2746 42.0136 44.2825 38.936C45.785 34.3484 48.3078 30.6293 51.5242 28.0491C54.7601 25.4533 58.6922 24.013 62.9917 24.0002C65.1127 23.9939 67.3176 24.335 69.566 25.0561C69.5804 25.0516 69.595 25.0475 69.6099 25.0439C72.0399 24.4423 74.2848 24.1701 76.3524 24.1952C81.2485 24.2545 85.1211 25.9775 88.084 28.9427C91.0096 31.8706 93.0238 36.0005 94.2422 40.9223C95.2997 45.1944 95.759 50.0745 95.6958 55.2871C95.6155 61.915 95.9983 68.3691 97.2711 74.6482C98.5395 80.9061 100.694 86.9975 104.16 92.9247C104.373 93.288 104.251 93.7552 103.888 93.9682C103.525 94.1812 103.058 94.0594 102.845 93.6961C99.2876 87.6132 97.0768 81.3647 95.776 74.9472C94.4796 68.551 94.0894 61.9939 94.1708 55.2692C94.2324 50.1877 93.7865 45.4371 92.7591 41.2871C91.6058 36.6281 89.7215 32.7411 87.0016 30.0191C84.3189 27.3344 80.7987 25.7742 76.3344 25.7201C74.4001 25.6966 72.2832 25.9554 69.9746 26.5269C69.8925 26.5471 69.8103 26.5531 69.7304 26.5467C69.576 26.6026 69.4026 26.6095 69.2343 26.5548C67.0871 25.8515 64.9933 25.5192 62.9917 25.5251C59.0533 25.5368 55.4493 26.858 52.481 29.2391C49.4932 31.6359 47.1436 35.1094 45.7356 39.4085C44.7745 42.3431 44.2517 45.6576 44.2624 49.273C44.2642 49.8865 44.2667 50.5027 44.269 51.1212C44.3264 65.915 44.3888 82.0103 36.8749 93.723ZM52.4848 62.9268C53.012 68.3391 55.1735 74.2191 58.5331 78.4963C61.36 82.0954 65.0313 84.5381 69.2662 84.5381C69.4348 84.5381 69.5347 84.5377 69.5656 84.5369C74.139 84.4152 78.0265 81.4762 80.7804 77.5074C83.5751 73.4796 85.1942 68.4136 85.1942 64.1202C85.1942 63.9036 85.1932 63.7558 85.1911 63.6786C85.1909 63.6666 85.1909 63.6548 85.1911 63.643C84.7752 55.3958 83.6296 46.1858 80.3367 42.4416C78.3778 40.2144 75.4963 40.1257 71.2708 43.842C68.6289 46.1655 66.658 44.8247 64.6585 43.4645C63.2222 42.4874 61.7666 41.4971 60.0875 42.6309C53.0627 47.3745 52.4305 55.4936 52.4848 62.9268ZM57.1047 79.1478C57.4851 80.7818 57.7734 82.4608 57.95 84.0991C58.2925 87.2755 58.2176 90.3193 57.5858 92.624C58.1861 93.8478 58.9196 95.0835 59.7254 96.2696C61.2443 98.5056 63.0108 100.552 64.6226 102.005C66.7846 103.689 68.2974 105.838 69.3072 108.206C69.6413 108.989 69.9198 109.796 70.1483 110.618C70.3359 109.573 70.5749 108.607 70.8911 107.718C71.7757 105.228 73.2376 103.358 75.7917 102.034C75.8417 101.999 75.8967 101.969 75.9559 101.946C76.959 101.491 78.0272 100.666 79.0593 99.5983C80.7217 97.8788 82.2615 95.5622 83.2813 93.157C83.2275 93.0875 83.1848 93.0074 83.1568 92.9187C82.1744 89.8175 81.3497 86.9213 81.1711 83.8771C81.0815 82.3485 81.1565 80.7934 81.4582 79.1722C78.487 83.1007 74.4063 85.9339 69.6014 86.0618C69.4215 86.0665 69.3097 86.069 69.2661 86.069C64.5067 86.069 60.4322 83.3893 57.331 79.4411C57.2549 79.3442 57.1796 79.2463 57.1047 79.1478ZM56.4927 84.882C55.8189 86.04 55.8549 87.6538 56.3491 89.4518C56.3987 89.6323 56.453 89.8145 56.5115 89.9981C56.6738 88.4538 56.6574 86.704 56.4927 84.882ZM56.1154 93.0831C56.0896 93.0402 56.068 92.9948 56.051 92.9477C55.5557 91.898 55.1535 90.8552 54.878 89.8524C54.3694 88.0016 54.2876 86.272 54.8264 84.8465C53.5272 85.4734 52.442 86.2616 51.5907 87.184C50.2649 88.6207 49.5012 90.3928 49.3772 92.3946C49.2554 94.3635 49.7149 96.8556 50.1947 99.4578C50.6409 101.877 51.1041 104.39 51.1581 106.759C51.1861 107.988 51.3943 108.542 51.749 108.714C52.157 108.912 52.9125 108.776 53.8548 108.571C56.1134 108.081 58.445 107.277 60.315 106.094C61.6491 105.25 62.7445 104.214 63.3946 102.965C63.3788 102.946 63.364 102.926 63.3503 102.906C61.7208 101.392 59.9712 99.3441 58.4636 97.1248C57.5752 95.817 56.7682 94.4455 56.1154 93.0831ZM85.4604 84.7044C86.4404 87.0353 86.1051 90.0058 85.0234 92.9046C83.9498 95.7819 82.135 98.6135 80.1596 100.657C79.194 101.656 78.1822 102.474 77.1885 103.03C77.8352 104.458 79.0829 105.504 80.542 106.307C82.2921 107.269 84.3433 107.887 86.0783 108.387C87.023 108.659 87.9434 108.841 88.5652 108.632C89.0649 108.464 89.406 107.933 89.4327 106.759C89.4868 104.39 89.95 101.878 90.3961 99.458C90.8759 96.8557 91.3354 94.3635 91.2136 92.3946C91.0897 90.3928 90.3259 88.6206 89.0001 87.184C88.0833 86.1905 86.8951 85.3527 85.4604 84.7044Z" fill="black"/>
</svg>
