<svg width="41" height="36" viewBox="0 0 41 36" fill="none" xmlns="http://www.w3.org/2000/svg">
<path d="M41 26.6037L38.074 21.2157L38.4703 19.577C38.6434 18.8621 38.6152 18.1131 38.3897 17.4127L37.7619 15.4661C37.6193 15.0232 37.3884 14.614 37.0836 14.262L36.2322 13.2801H36.2326C36.3629 14.0985 36.4308 14.9379 36.4308 15.7931C35.2933 16.9272 34.0236 17.8124 32.6524 17.8124H30.806L30.9486 20.4009C31.1769 21.0826 31.6055 21.6808 32.1782 22.1172L33.5453 23.1596L37.823 36L41 26.6037Z" fill="black"/>
<path d="M3.17659 36L7.45425 23.1596L8.82137 22.1172C9.39401 21.6803 9.82268 21.0826 10.0509 20.4009L10.1935 17.8124H8.34714C6.97637 17.8124 5.70629 16.9272 4.56876 15.7931C4.56876 14.9379 4.63664 14.0985 4.76693 13.2801H4.76739L3.91595 14.262C3.61073 14.614 3.38022 15.0232 3.23763 15.4661L2.61033 17.4127C2.38438 18.1131 2.35659 18.8616 2.5297 19.577L2.92603 21.2157L0 26.6037L3.17659 36Z" fill="black"/>
<path d="M20.5001 0C13.0755 0 6.84619 5.09374 5.13011 11.9665C5.20255 11.9865 5.27407 12.0124 5.34422 12.0447C5.89772 12.3013 6.21342 12.8935 6.1173 13.4944C6.02665 14.0622 5.9697 14.6404 5.94692 15.2208C6.86259 16.047 7.65116 16.4499 8.3477 16.4499H10.1941C10.5694 16.4499 10.9284 16.6038 11.1867 16.8759C11.4227 17.1248 11.5493 17.4532 11.5544 17.7933H13.1921C16.0097 17.7933 18.302 20.0788 18.302 22.888V27.8091C14.9783 27.2082 12.1293 25.267 10.3203 22.5723C10.1162 22.7981 9.89796 23.012 9.65241 23.1996L8.61921 23.9867L8.08393 25.5941C10.9849 29.2435 15.4667 31.5866 20.5001 31.5866C25.5335 31.5866 30.0153 29.2435 32.9167 25.5941L32.3814 23.9867L31.3482 23.2C31.1027 23.0124 30.8845 22.7981 30.6804 22.5723C28.8714 25.267 26.0223 27.2082 22.6982 27.8091V22.888C22.6982 20.0788 24.9905 17.7933 27.8081 17.7933H29.4458C29.4508 17.4532 29.577 17.1248 29.8135 16.8759C30.0713 16.6038 30.4303 16.4499 30.8061 16.4499H32.6525C33.349 16.4499 34.1376 16.047 35.0533 15.2208C35.0305 14.6404 34.9735 14.0613 34.8833 13.4935C34.7877 12.8922 35.1034 12.3008 35.6573 12.0442C35.727 12.012 35.7981 11.9861 35.8705 11.9661C34.154 5.09374 27.9247 0 20.5001 0ZM20.5001 17.985C19.2778 17.985 18.287 16.9971 18.287 15.7786C18.287 14.56 19.2778 13.5721 20.5001 13.5721C21.7223 13.5721 22.7132 14.56 22.7132 15.7786C22.7132 16.9971 21.7223 17.985 20.5001 17.985ZM29.8071 13.41C27.3667 13.41 24.8324 12.8222 22.2749 11.6636C21.1593 11.1572 19.8423 11.1581 18.7248 11.6636C16.1678 12.8222 13.634 13.41 11.1931 13.41H8.48209C9.59456 7.80435 14.5515 3.57765 20.5001 3.57765C26.4487 3.57765 31.4056 7.8048 32.5181 13.41H29.8071Z" fill="black"/>
</svg>
