<svg width="41" height="36" viewBox="0 0 41 36" fill="none" xmlns="http://www.w3.org/2000/svg">
<path d="M36.8994 14.8408C37.0655 15.0799 37.1967 15.3416 37.2861 15.6191L37.9141 17.5664C38.1112 18.1791 38.1356 18.8341 37.9844 19.459L37.5879 21.0977L37.543 21.2852L37.6348 21.4541L40.4561 26.6504L37.8262 34.4287L34.0195 23.002L33.9707 22.8555L33.8486 22.7617L32.4814 21.7197C32.0043 21.356 31.6441 20.8617 31.4434 20.2988L31.335 18.3125H32.6523C34.2348 18.3125 35.6297 17.2985 36.7842 16.1475L36.9307 16.001V15.793C36.9307 15.4733 36.9175 15.156 36.8994 14.8408ZM4.09863 14.8418C4.08054 15.1566 4.06836 15.4737 4.06836 15.793V16.001L4.21582 16.1475C5.37018 17.2983 6.76498 18.3123 8.34668 18.3125H9.66504L9.55566 20.2979C9.3809 20.7881 9.08632 21.2267 8.69727 21.5723L8.51855 21.7197L7.15137 22.7617L7.02832 22.8555L6.97949 23.002L3.17285 34.4277L0.542969 26.6504L3.36523 21.4541L3.45703 21.2852L3.41211 21.0977L3.01562 19.459C2.86428 18.8333 2.8884 18.1788 3.08594 17.5664L3.71387 15.6191C3.80316 15.3419 3.9331 15.0804 4.09863 14.8418ZM20.5 0.5C27.5433 0.5 33.4724 5.23403 35.2744 11.6816C34.6262 12.0683 34.269 12.8142 34.3896 13.5723C34.4643 14.0425 34.5131 14.5212 34.54 15.002C33.7392 15.6869 33.1259 15.9502 32.6523 15.9502H30.8057C30.2936 15.9503 29.8037 16.1597 29.4512 16.5312C29.2428 16.7506 29.0981 17.0132 29.0186 17.293H27.8086C24.7164 17.293 22.1984 19.8011 22.1982 22.8877V28.4072L22.7871 28.3008C26.0413 27.7125 28.8559 25.8909 30.7451 23.3457C30.7774 23.375 30.8094 23.4049 30.8428 23.4336L31.0449 23.5977L31.9561 24.291L32.3555 25.4902C29.5415 28.906 25.2782 31.0869 20.5 31.0869C15.7217 31.0869 11.458 28.9061 8.64453 25.4902L9.04492 24.29L9.95508 23.5977L9.95605 23.5967C10.0609 23.5166 10.1588 23.4309 10.2539 23.3447C12.1431 25.8907 14.9586 27.7124 18.2129 28.3008L18.8018 28.4072V22.8877C18.8016 19.8012 16.2845 17.2931 13.1924 17.293H11.9814C11.9018 17.0133 11.7574 16.7513 11.5498 16.5322V16.5312C11.197 16.1597 10.7065 15.9503 10.1943 15.9502H8.34766C7.87387 15.9502 7.26041 15.6866 6.45898 15.001C6.48591 14.5207 6.53631 14.043 6.61133 13.5732C6.73249 12.8153 6.37406 12.0693 5.72559 11.6826C7.52695 5.23428 13.4565 0.500042 20.5 0.5ZM20.5 13.0723C19.0031 13.0723 17.7872 14.2823 17.7871 15.7783C17.7871 17.2744 19.0031 18.4853 20.5 18.4854C21.997 18.4854 23.2129 17.2745 23.2129 15.7783C23.2128 14.2823 21.9969 13.0723 20.5 13.0723ZM20.5 3.07812C14.3091 3.07817 9.14942 7.4765 7.99121 13.3125L7.87305 13.9102H11.1934C13.7153 13.9101 16.3187 13.3017 18.9307 12.1182C19.8558 11.6997 20.9394 11.6737 21.8818 12.04L22.0684 12.1191C24.6808 13.3027 27.2852 13.9101 29.8066 13.9102H33.127L33.0088 13.3125C31.8506 7.47697 26.6909 3.07812 20.5 3.07812Z" stroke="black"/>
</svg>
