<svg width="21" height="21" viewBox="0 0 21 21" fill="none" xmlns="http://www.w3.org/2000/svg">
<path d="M15.7363 13.3625C16.1829 13.5813 16.5521 13.8889 16.8438 14.2854C17.1354 14.6819 17.32 15.1285 17.3975 15.6252H16.6455C16.5954 15.3654 16.502 15.1239 16.3652 14.9006C16.2285 14.6773 16.0622 14.4859 15.8662 14.3264C15.6702 14.1669 15.4492 14.0393 15.2031 13.9436C14.957 13.8479 14.7018 13.8023 14.4375 13.8069C14.1686 13.8069 13.9134 13.8524 13.6719 13.9436C13.4303 14.0347 13.2093 14.16 13.0088 14.3195C12.8083 14.4791 12.6419 14.6727 12.5098 14.9006C12.3776 15.1285 12.2842 15.37 12.2295 15.6252H11.4775C11.5505 15.133 11.7327 14.6887 12.0244 14.2922C12.3161 13.8957 12.6875 13.5858 13.1387 13.3625C12.8789 13.1574 12.6784 12.9091 12.5371 12.6174C12.3958 12.3257 12.3229 12.0158 12.3184 11.6877C12.3184 11.4826 12.3457 11.2844 12.4004 11.093C12.4551 10.9016 12.5371 10.7216 12.6465 10.5529C12.7559 10.3843 12.8857 10.2339 13.0361 10.1018C13.1865 9.96961 13.3551 9.85796 13.542 9.76682C13.4189 9.58908 13.2777 9.43185 13.1182 9.29514C12.9587 9.15842 12.7855 9.03765 12.5986 8.93283C12.4118 8.82801 12.2158 8.75282 12.0107 8.70724C11.8057 8.66167 11.5938 8.63433 11.375 8.62521C11.0104 8.62521 10.6618 8.69585 10.3291 8.83713C9.99642 8.9784 9.70703 9.18576 9.46094 9.4592C9.57031 9.75542 9.625 10.0608 9.625 10.3752C9.625 10.7945 9.53158 11.1887 9.34473 11.5578C9.15788 11.927 8.89583 12.2369 8.55859 12.4875C8.85482 12.6379 9.12142 12.8225 9.3584 13.0412C9.59538 13.26 9.80046 13.5061 9.97363 13.7795C10.1468 14.0529 10.2767 14.3446 10.3633 14.6545C10.4499 14.9644 10.4954 15.288 10.5 15.6252H9.625C9.625 15.2652 9.55664 14.9257 9.41992 14.6067C9.2832 14.2876 9.09635 14.0097 8.85938 13.7727C8.6224 13.5357 8.34212 13.3466 8.01855 13.2053C7.69499 13.064 7.35547 12.9957 7 13.0002C6.63542 13.0002 6.2959 13.0686 5.98145 13.2053C5.66699 13.342 5.389 13.5289 5.14746 13.7658C4.90592 14.0028 4.7168 14.2831 4.58008 14.6067C4.44336 14.9302 4.375 15.2697 4.375 15.6252H3.5C3.5 15.2925 3.54557 14.9712 3.63672 14.6613C3.72786 14.3515 3.85775 14.0598 4.02637 13.7863C4.19499 13.5129 4.39779 13.2668 4.63477 13.0481C4.87174 12.8293 5.14062 12.6425 5.44141 12.4875C5.10417 12.2369 4.84212 11.927 4.65527 11.5578C4.46842 11.1887 4.375 10.7945 4.375 10.3752C4.375 10.0152 4.44336 9.67567 4.58008 9.35666C4.7168 9.03765 4.90365 8.75965 5.14062 8.52267C5.3776 8.2857 5.6556 8.09657 5.97461 7.95529C6.29362 7.81402 6.63542 7.74566 7 7.75021C7.38737 7.75021 7.75423 7.83224 8.10059 7.99631C8.44694 8.16037 8.74772 8.38823 9.00293 8.6799C9.12142 8.56597 9.24902 8.46343 9.38574 8.37228C9.52246 8.28114 9.66602 8.19455 9.81641 8.11252C9.47917 7.86187 9.21712 7.55197 9.03027 7.18283C8.84342 6.81369 8.75 6.41948 8.75 6.00021C8.75 5.64019 8.81836 5.30067 8.95508 4.98166C9.0918 4.66265 9.27865 4.38465 9.51562 4.14767C9.7526 3.9107 10.0306 3.72157 10.3496 3.58029C10.6686 3.43902 11.0104 3.37066 11.375 3.37521C11.735 3.37521 12.0745 3.44357 12.3936 3.58029C12.7126 3.71701 12.9906 3.90386 13.2275 4.14084C13.4645 4.37782 13.6536 4.65809 13.7949 4.98166C13.9362 5.30523 14.0046 5.64474 14 6.00021C14 6.41948 13.9066 6.81369 13.7197 7.18283C13.5329 7.55197 13.2708 7.86187 12.9336 8.11252C13.2526 8.28114 13.5397 8.48622 13.7949 8.72775C14.0501 8.96929 14.2666 9.24956 14.4443 9.56857C14.736 9.56857 15.0094 9.62326 15.2646 9.73264C15.5199 9.84201 15.7454 9.99468 15.9414 10.1906C16.1374 10.3866 16.2878 10.6099 16.3926 10.8606C16.4974 11.1112 16.5521 11.3869 16.5566 11.6877C16.5566 12.0158 16.486 12.3257 16.3447 12.6174C16.2035 12.9091 16.0007 13.1574 15.7363 13.3625ZM7 12.1252C7.24154 12.1252 7.46712 12.0796 7.67676 11.9885C7.88639 11.8973 8.07324 11.772 8.2373 11.6125C8.40137 11.453 8.52669 11.2684 8.61328 11.0588C8.69987 10.8492 8.74544 10.6213 8.75 10.3752C8.75 10.1337 8.70443 9.90809 8.61328 9.69846C8.52214 9.48882 8.39681 9.30197 8.2373 9.13791C8.0778 8.97385 7.89323 8.84852 7.68359 8.76193C7.47396 8.67534 7.24609 8.62977 7 8.62521C6.75846 8.62521 6.53288 8.67079 6.32324 8.76193C6.11361 8.85308 5.92676 8.9784 5.7627 9.13791C5.59863 9.29741 5.47331 9.48198 5.38672 9.69162C5.30013 9.90126 5.25456 10.1291 5.25 10.3752C5.25 10.6168 5.29557 10.8423 5.38672 11.052C5.47786 11.2616 5.60319 11.4485 5.7627 11.6125C5.9222 11.7766 6.10677 11.9019 6.31641 11.9885C6.52604 12.0751 6.75391 12.1207 7 12.1252ZM9.625 6.00021C9.625 6.24175 9.67057 6.46734 9.76172 6.67697C9.85286 6.88661 9.97819 7.07346 10.1377 7.23752C10.2972 7.40158 10.4818 7.52691 10.6914 7.61349C10.901 7.70008 11.1289 7.74566 11.375 7.75021C11.6165 7.75021 11.8421 7.70464 12.0518 7.61349C12.2614 7.52235 12.4482 7.39702 12.6123 7.23752C12.7764 7.07801 12.9017 6.89344 12.9883 6.68381C13.0749 6.47417 13.1204 6.24631 13.125 6.00021C13.125 5.75868 13.0794 5.53309 12.9883 5.32346C12.8971 5.11382 12.7718 4.92697 12.6123 4.76291C12.4528 4.59885 12.2682 4.47352 12.0586 4.38693C11.849 4.30034 11.6211 4.25477 11.375 4.25021C11.1335 4.25021 10.9079 4.29579 10.6982 4.38693C10.4886 4.47808 10.3018 4.6034 10.1377 4.76291C9.97363 4.92241 9.84831 5.10698 9.76172 5.31662C9.67513 5.52626 9.62956 5.75412 9.625 6.00021ZM14.4375 10.3069C14.2461 10.3069 14.0684 10.3433 13.9043 10.4162C13.7402 10.4891 13.5944 10.5871 13.4668 10.7102C13.3392 10.8332 13.2389 10.9791 13.166 11.1477C13.0931 11.3163 13.0566 11.4963 13.0566 11.6877C13.0566 11.8791 13.0931 12.0569 13.166 12.2209C13.2389 12.385 13.3369 12.5308 13.46 12.6584C13.583 12.786 13.7288 12.8863 13.8975 12.9592C14.0661 13.0321 14.2461 13.0686 14.4375 13.0686C14.6289 13.0686 14.8066 13.0321 14.9707 12.9592C15.1348 12.8863 15.2806 12.7883 15.4082 12.6653C15.5358 12.5422 15.6361 12.3964 15.709 12.2278C15.7819 12.0591 15.8184 11.8791 15.8184 11.6877C15.8184 11.4963 15.7819 11.3186 15.709 11.1545C15.6361 10.9904 15.5381 10.8446 15.415 10.717C15.292 10.5894 15.1462 10.4891 14.9775 10.4162C14.8089 10.3433 14.6289 10.3069 14.4375 10.3069Z" fill="black"/>
<circle cx="10.5" cy="10.5" r="9.75" stroke="black" stroke-width="1.5"/>
</svg>
