<svg width="22" height="21" viewBox="0 0 22 21" fill="none" xmlns="http://www.w3.org/2000/svg">
<path d="M10.8 0.00655197C8.35224 0.00655197 5.90448 0.640296 3.69552 1.90781L4.11833 2.64C8.24609 0.256872 13.3338 0.256872 17.4628 2.64L17.8856 1.90781C15.6778 0.633744 13.2301 0 10.7811 0L10.8 0.00655197ZM10.8 1.72781C6.33552 1.72781 2.23224 4.10626 0 7.96781L0.732192 8.39062C2.80781 4.79062 6.63667 2.55838 10.8122 2.55838C14.9644 2.55838 18.8044 4.7737 20.8677 8.36614L21.5999 7.94333C19.3724 4.07885 15.2644 1.70333 10.7999 1.70333L10.8 1.72781ZM10.8 3.44906C8.94468 3.44906 7.08 3.92906 5.42448 4.88906C2.08896 6.80906 0.04896 10.3613 0.04896 14.2013H0.896448C0.896448 10.6735 2.7827 7.38578 5.84093 5.63354C8.91317 3.86448 12.6809 3.86448 15.7532 5.63354C18.8254 7.40261 20.6976 10.6735 20.6976 14.2013H21.5451C21.5451 10.3613 19.4958 6.80906 16.1696 4.88906C14.5065 3.92906 12.6419 3.44906 10.7941 3.44906H10.8ZM10.8 5.17219C8.73562 5.17219 6.67224 5.87532 4.99224 7.28438C1.63224 10.0921 0.79224 14.9166 2.97662 18.7089L3.72101 18.2767C1.72882 14.8444 2.49662 10.4767 5.54539 7.93219C8.59315 5.38771 13.0099 5.38771 16.0576 7.93219C19.1054 10.4767 19.8732 14.8444 17.8839 18.3L18.6161 18.7228C20.8005 14.9072 19.9605 10.0828 16.6005 7.275C14.9205 5.85938 12.856 5.16281 10.7927 5.16281L10.8 5.17219ZM10.8 6.89345C7.48776 6.89345 4.60776 9.11813 3.74448 12.3179C2.89042 15.5102 4.28729 18.8934 7.15224 20.5257L7.56005 19.7813C5.04005 18.3169 3.79229 15.3413 4.56005 12.5091C5.3185 9.67682 7.87229 7.70906 10.8 7.70906C13.7278 7.70906 16.2723 9.67219 17.04 12.5091C17.7985 15.3413 16.5647 18.3168 14.04 19.7813L14.4629 20.5135C17.3184 18.8579 18.7106 15.4735 17.8473 12.2813C16.983 9.08902 14.1029 6.85678 10.7918 6.85678L10.8 6.89345ZM10.8 8.6147C7.72776 8.6147 5.20776 11.1102 5.20776 14.2069C5.20776 17.2792 7.70328 19.7992 10.8 19.7992C13.8722 19.7992 16.3922 17.3037 16.3922 14.2069C16.3922 11.0869 13.8722 8.59142 10.8 8.59142V8.6147ZM10.8 9.46219C13.4155 9.46219 15.5278 11.5791 15.5522 14.2144C15.5522 16.83 13.4354 18.9667 10.8 18.9667C8.18448 18.9667 6.04776 16.8498 6.04776 14.2144C6.04776 11.5989 8.16463 9.46219 10.8 9.46219ZM10.8 10.3359C8.67094 10.3359 6.93552 12.0713 6.93552 14.2004C6.93552 16.3296 8.67084 18.0649 10.8 18.0649C12.9292 18.0649 14.6645 16.3296 14.6645 14.2004C14.6645 12.0713 12.9292 10.3359 10.8 10.3359ZM10.8 11.1834C12.4725 11.1834 13.8245 12.5297 13.8245 14.2079C13.8245 15.8804 12.4782 17.2324 10.8 17.2324C9.12749 17.2324 7.77552 15.8861 7.77552 14.2079C7.77552 12.5354 9.12178 11.1834 10.8 11.1834ZM10.8 12.0572C9.62155 12.0572 8.65687 13.0218 8.65687 14.2003C8.65687 15.3787 9.62155 16.3462 10.8 16.3462C11.9784 16.3462 12.9459 15.3816 12.9459 14.2003C12.9459 13.0218 11.9813 12.0572 10.8 12.0572ZM10.8 12.9047C11.5228 12.9047 12.0984 13.4803 12.0984 14.2031C12.0984 14.9259 11.5228 15.5016 10.8 15.5016C10.0772 15.5016 9.50155 14.9259 9.50155 14.2031C9.50155 13.4803 10.0772 12.9047 10.8 12.9047Z" fill="#79747E"/>
</svg>
