<svg width="21" height="16" viewBox="0 0 21 16" fill="none" xmlns="http://www.w3.org/2000/svg">
<path d="M20.1741 7.22207C20.0354 6.9352 16.698 0.18335 10.0193 0.18335C9.0302 0.18335 8.06646 0.337098 7.15415 0.640838C6.82789 0.721463 6.58789 1.01677 6.58789 1.36929C6.58789 1.86522 7.11195 2.23835 7.58257 2.07897C13.1251 0.126158 17.6175 5.44281 18.6619 7.57377C18.4013 8.10251 17.7769 9.23221 16.7288 10.3609C16.2769 10.8137 16.6501 11.6434 17.2791 11.6209C17.4807 11.6209 17.6813 11.5403 17.8294 11.3809C19.442 9.64369 20.1638 7.90569 20.1938 7.83249C20.2745 7.63561 20.267 7.41436 20.1751 7.22217L20.1741 7.22207Z" fill="black"/>
<path d="M12.8337 7.38141C12.8571 7.79579 13.2171 8.11173 13.6259 8.08641C14.0393 8.06203 14.3543 7.70766 14.3309 7.29422C14.2034 5.1089 12.3874 3.36902 10.1973 3.33326C9.78483 3.32669 9.44079 3.6567 9.43515 4.07106C9.42859 4.48545 9.7586 4.82668 10.173 4.83326C11.583 4.85669 12.753 5.97606 12.8346 7.38134L12.8337 7.38141Z" fill="black"/>
<path d="M8.14514 4.61374C8.14326 4.61186 3.54002 0.211176 3.53834 0.208536C3.2374 -0.0783357 2.76395 -0.0680156 2.47802 0.231974C2.19208 0.531038 2.2024 1.00636 2.50145 1.29229L3.78584 2.51949C1.3352 4.53417 0.122959 7.11501 0.0687185 7.23429C-0.0203431 7.42835 -0.0231558 7.65054 0.0621562 7.84648C0.111843 7.96085 1.30622 10.6674 3.87024 12.6952C4.64275 13.2999 5.56711 12.1317 4.80024 11.5186C3.01524 10.1058 1.95768 8.27217 1.58736 7.55481C1.97268 6.83668 3.07797 5.00385 4.88352 3.56865L6.61977 5.22897C4.04625 9.10737 8.86416 13.6599 12.6011 10.9477L14.1142 12.3942C12.857 13.0617 11.4855 13.4049 10.021 13.4049C9.15566 13.4049 8.3316 13.2764 7.57322 13.0233C7.17667 12.8921 6.75477 13.1049 6.62448 13.4977C6.23073 14.8561 9.10416 14.8374 10.021 14.9039C11.9053 14.9039 13.6594 14.4211 15.2484 13.4771L16.7156 14.8796C17.0147 15.1655 17.49 15.1561 17.7759 14.8561C18.0618 14.5571 18.0515 14.0818 17.7525 13.7958L8.14695 4.61198L8.14514 4.61374ZM10.1242 10.2557C8.63169 10.2557 7.41676 9.04159 7.41676 7.54822C7.41676 7.10666 7.53489 6.6829 7.73644 6.29854L11.4809 9.87886C11.0684 10.1179 10.6081 10.2567 10.1244 10.2567L10.1242 10.2557Z" fill="black"/>
</svg>
