<svg width="14" height="14" viewBox="0 0 14 14" fill="none" xmlns="http://www.w3.org/2000/svg">
<path d="M3 3.66675H2.33333C1.97971 3.66675 1.64057 3.80722 1.39052 4.05727C1.14048 4.30732 1 4.64646 1 5.00008V11.0001C1 11.3537 1.14048 11.6928 1.39052 11.9429C1.64057 12.1929 1.97971 12.3334 2.33333 12.3334H8.33333C8.68696 12.3334 9.02609 12.1929 9.27614 11.9429C9.52619 11.6928 9.66667 11.3537 9.66667 11.0001V10.3334" stroke="black" stroke-width="2" stroke-linecap="round" stroke-linejoin="round"/>
<path d="M9.00016 2.3334L11.0002 4.3334M11.9235 3.39007C12.1861 3.12751 12.3336 2.77139 12.3336 2.40007C12.3336 2.02875 12.1861 1.67264 11.9235 1.41007C11.6609 1.14751 11.3048 1 10.9335 1C10.5622 1 10.2061 1.14751 9.9435 1.41007L4.3335 7.00007V9.00007H6.3335L11.9235 3.39007Z" stroke="black" stroke-width="2" stroke-linecap="round" stroke-linejoin="round"/>
</svg>
