<svg width="24" height="24" viewBox="0 0 24 24" fill="none" xmlns="http://www.w3.org/2000/svg">
<path d="M12.0001 1.4032C14.8106 1.4032 17.5059 2.51964 19.4932 4.50693C21.4805 6.49421 22.5969 9.18955 22.5969 12C22.5969 14.8104 21.4805 17.5058 19.4932 19.4931C17.5059 21.4804 14.8106 22.5968 12.0001 22.5968C9.18967 22.5968 6.49434 21.4804 4.50705 19.4931C2.51977 17.5058 1.40332 14.8104 1.40332 12C1.40332 9.18955 2.51977 6.49421 4.50705 4.50693C6.49434 2.51964 9.18967 1.4032 12.0001 1.4032ZM12.0001 15.96C10.8724 15.9594 9.76433 16.2554 8.78707 16.8181C7.8098 17.3809 6.99767 18.1907 6.43212 19.1664C8.02321 20.406 9.98315 21.0779 12.0001 21.0752C14.0167 21.0771 15.9761 20.4046 17.5665 19.1648C17.0009 18.1897 16.1889 17.3803 15.212 16.8178C14.235 16.2554 13.1274 15.9595 12.0001 15.96ZM12.0001 2.9216C10.2412 2.92267 8.52052 3.43466 7.04716 4.39535C5.5738 5.35603 4.41124 6.72402 3.70078 8.33305C2.99033 9.94207 2.76259 11.7228 3.04524 13.4589C3.32789 15.1949 4.10875 16.8114 5.29292 18.112C6.01226 16.9856 7.00389 16.0587 8.17618 15.4169C9.34848 14.7751 10.6636 14.4391 12.0001 14.44C14.8177 14.44 17.2929 15.9056 18.7073 18.1104C19.891 16.8098 20.6714 15.1934 20.9537 13.4576C21.2361 11.7219 21.0082 9.94144 20.2979 8.33272C19.5875 6.72401 18.4251 5.35625 16.9521 4.39565C15.479 3.43504 13.7587 2.92295 12.0001 2.9216ZM12.0001 6.6496C12.5029 6.63493 13.0035 6.72128 13.4723 6.90356C13.9412 7.08584 14.3686 7.36033 14.7295 7.71078C15.0903 8.06123 15.3771 8.48051 15.573 8.94381C15.7689 9.40711 15.8698 9.905 15.8698 10.408C15.8698 10.911 15.7689 11.4089 15.573 11.8722C15.3771 12.3355 15.0903 12.7548 14.7295 13.1052C14.3686 13.4557 13.9412 13.7302 13.4723 13.9124C13.0035 14.0947 12.5029 14.1811 12.0001 14.1664C11.0165 14.1461 10.0801 13.7411 9.39168 13.0384C8.70325 12.3356 8.31768 11.391 8.31768 10.4072C8.31768 9.42342 8.70325 8.47882 9.39168 7.77604C10.0801 7.07326 11.0165 6.66989 12.0001 6.6496ZM12.0001 8.1664C11.406 8.1664 10.8363 8.4024 10.4162 8.82248C9.99612 9.24256 9.76012 9.81231 9.76012 10.4064C9.76012 11.0005 9.99612 11.5702 10.4162 11.9903C10.8363 12.4104 11.406 12.6464 12.0001 12.6464C12.5942 12.6464 13.164 12.4104 13.584 11.9903C14.0041 11.5702 14.2401 11.0005 14.2401 10.4064C14.2401 9.81231 14.0041 9.24256 13.584 8.82248C13.164 8.4024 12.5942 8.1664 12.0001 8.1664Z" fill="black"/>
</svg>
