<svg width="24" height="24" viewBox="0 0 24 24" fill="none" xmlns="http://www.w3.org/2000/svg">
<path d="M11.25 3C7.125 3 3 4.5 3 7.5H7.5C7.5 4.5 15 4.5 15 7.5H19.5C19.5 4.5 15.375 3 11.25 3ZM3 9C3 9.831 3.669 10.5 4.5 10.5H6C6.831 10.5 7.5 9.831 7.5 9H3ZM15 9C15 9.831 15.669 10.5 16.5 10.5H18C18.831 10.5 19.5 9.831 19.5 9H15ZM5.25 13.5C4.017 13.5 3 14.517 3 15.75C3 16.983 4.017 18 5.25 18C5.673 18 6 18.327 6 18.75C6 19.173 5.673 19.5 5.25 19.5H3.75C3.55109 19.5 3.36032 19.579 3.21967 19.7197C3.07902 19.8603 3 20.0511 3 20.25C3 20.4489 3.07902 20.6397 3.21967 20.7803C3.36032 20.921 3.55109 21 3.75 21H5.25C6.483 21 7.5 19.983 7.5 18.75C7.5 17.517 6.483 16.5 5.25 16.5C5.15112 16.5014 5.05296 16.483 4.96132 16.4458C4.86969 16.4086 4.78645 16.3534 4.71652 16.2835C4.64659 16.2136 4.5914 16.1303 4.55421 16.0387C4.51702 15.947 4.49859 15.8489 4.5 15.75C4.5 15.327 4.827 15 5.25 15H6.75C6.94891 15 7.13968 14.921 7.28033 14.7803C7.42098 14.6397 7.5 14.4489 7.5 14.25C7.5 14.0511 7.42098 13.8603 7.28033 13.7197C7.13968 13.579 6.94891 13.5 6.75 13.5H5.25ZM11.25 13.5C10.017 13.5 9 14.517 9 15.75V18.75C9 19.983 10.017 21 11.25 21C12.2775 21 13.0125 20.229 13.278 19.281C13.3481 19.2115 13.4039 19.1288 13.442 19.0376C13.4801 18.9465 13.4998 18.8488 13.5 18.75V15.75C13.5 14.517 12.483 13.5 11.25 13.5ZM17.25 13.5C16.017 13.5 15 14.517 15 15.75C15 16.983 16.017 18 17.25 18C17.673 18 18 18.327 18 18.75C18 19.173 17.673 19.5 17.25 19.5H15.75C15.5511 19.5 15.3603 19.579 15.2197 19.7197C15.079 19.8603 15 20.0511 15 20.25C15 20.4489 15.079 20.6397 15.2197 20.7803C15.3603 20.921 15.5511 21 15.75 21H17.25C18.483 21 19.5 19.983 19.5 18.75C19.5 17.517 18.483 16.5 17.25 16.5C17.1511 16.5014 17.053 16.483 16.9613 16.4458C16.8697 16.4086 16.7864 16.3534 16.7165 16.2835C16.6466 16.2136 16.5914 16.1303 16.5542 16.0387C16.517 15.947 16.4986 15.8489 16.5 15.75C16.5 15.327 16.827 15 17.25 15H18.75C18.9489 15 19.1397 14.921 19.2803 14.7803C19.421 14.6397 19.5 14.4489 19.5 14.25C19.5 14.0511 19.421 13.8603 19.2803 13.7197C19.1397 13.579 18.9489 13.5 18.75 13.5H17.25ZM11.25 15C11.673 15 12 15.327 12 15.75V18.75C12 19.173 11.673 19.5 11.25 19.5C11.1511 19.5014 11.053 19.483 10.9613 19.4458C10.8697 19.4086 10.7864 19.3534 10.7165 19.2835C10.6466 19.2136 10.5914 19.1303 10.5542 19.0387C10.517 18.947 10.4986 18.8489 10.5 18.75V15.75C10.5 15.327 10.827 15 11.25 15Z" fill="black"/>
</svg>
