<svg width="24" height="24" viewBox="0 0 24 24" fill="none" xmlns="http://www.w3.org/2000/svg">
<g clip-path="url(#clip0_122_643)">
<path d="M12 0C5.38512 0 0 5.38128 0 11.9962C0 18.6149 5.38512 24 12 24C18.6149 24 24 18.6149 24 11.9962C24 5.38128 18.6149 0 12 0ZM12 21.8165C6.58584 21.8165 2.18352 17.4139 2.18352 11.9962C2.18352 6.582 6.58608 2.18328 12 2.18328C17.4139 2.18328 21.8165 6.582 21.8165 11.9962C21.8165 17.4139 17.4139 21.8165 12 21.8165Z" fill="black"/>
<path fill-rule="evenodd" clip-rule="evenodd" d="M15.4182 7.10615L12.0001 10.5242L8.58202 7.10519C8.17421 6.69832 7.51421 6.69738 7.10641 7.10519C6.6986 7.513 6.6986 8.17393 7.10641 8.58174L10.5245 11.9998L7.10545 15.4179C6.69857 15.8257 6.69857 16.4866 7.10545 16.8935C7.51419 17.3023 8.17419 17.3013 8.582 16.8945L12.0001 13.4754L15.4182 16.8935C15.825 17.3013 16.4869 17.3013 16.8938 16.8944C17.3016 16.4857 17.3016 15.8257 16.8938 15.4179L13.4757 11.9998L16.8938 8.58172C17.3016 8.17485 17.3016 7.51391 16.8938 7.1061C16.4869 6.69829 15.8251 6.69834 15.4182 7.10615Z" fill="black"/>
</g>
<defs>
<clipPath id="clip0_122_643">
<rect width="24" height="24" fill="white"/>
</clipPath>
</defs>
</svg>
