<svg width="141" height="141" viewBox="0 0 141 141" fill="none" xmlns="http://www.w3.org/2000/svg">
<circle cx="70" cy="70" r="70" fill="white"/>
<path d="M140 70.5C140 32.1162 108.884 1 70.5 1C32.1162 1 1 32.1162 1 70.5C1 108.884 32.1162 140 70.5 140V141C31.5639 141 0 109.436 0 70.5C0 31.5639 31.5639 0 70.5 0C109.436 0 141 31.5639 141 70.5C141 109.436 109.436 141 70.5 141V140C108.884 140 140 108.884 140 70.5Z" fill="black"/>
<path d="M16.533 113.325C16.2776 114.185 14.7786 113.846 15.0341 112.986C16.2042 109.036 18.0072 106.108 20.4056 103.778C24.635 99.6694 30.6014 97.5112 36.4053 95.6368C39.8556 94.5224 43.0453 93.4921 45.5747 91.7149C46.6124 90.9858 46.378 91.2032 46.4546 90.1218C46.6103 87.9281 47.5687 85.9864 49.2323 84.4127C50.5015 83.2123 52.1777 82.2313 54.216 81.5227C55.7035 81.0057 55.387 81.2062 55.0376 79.6216C54.5968 77.6222 53.9919 75.6907 53.3034 74.0476C52.3402 72.2624 50.9144 68.8461 49.4339 67.675C46.7088 65.5196 44.8395 61.0575 45.4599 57.8376C45.8121 56.0095 46.9944 54.5923 49.1509 54.2847C48.8769 52.7281 48.7146 51.15 48.6654 49.5759C48.6064 47.6893 48.5483 48.7157 47.7721 47.3702C47.4512 46.8138 47.2648 46.1108 47.2164 45.303C47.1292 43.8479 47.4804 42.0056 48.2934 40.0849C55.0036 24.2342 82.8927 24.7652 90.3671 39.8335C91.1497 41.4112 91.6602 42.9563 91.9317 44.3188C92.2097 45.7142 92.2411 46.9389 92.0604 47.8342C91.9889 48.1881 91.8827 48.5001 91.743 48.7643C91.1618 49.8635 90.9837 48.9976 90.8816 50.5564C90.8165 51.5495 90.7022 52.5386 90.5431 53.5238C90.4027 54.3932 90.2576 54.16 91.1294 54.2944C95.1189 54.9099 95.2466 59.0148 94.5 61.7481C93.8811 64.0139 92.521 66.2974 90.7794 67.675C89.7538 68.4862 88.9143 70.1407 87.9402 72.0602C87.7442 72.4466 87.5429 72.8431 87.3337 73.2458C86.3596 75.2752 85.6634 77.6534 85.2741 80.1039C85.0646 81.4223 85.046 81.0255 86.4502 81.5103C88.5047 82.2198 90.1931 83.2052 91.4697 84.4127C93.1333 85.9863 94.0917 87.928 94.2473 90.1218C94.3496 91.5641 94.1407 91.2521 95.6472 92.1604C98.4976 93.879 101.779 94.9482 105.371 96.1186C110.945 97.935 116.619 99.7249 120.609 103.797C122.936 106.173 124.571 109.166 125.727 113.165C125.975 114.029 124.47 114.357 124.222 113.493C123.29 110.268 122.019 107.762 120.358 105.707C118.659 103.605 119.406 104.782 119.675 106.319C119.939 108.173 119.535 110.104 119.021 111.789C118.865 112.305 117.966 112.099 118.121 111.583C118.611 109.979 118.996 108.148 118.75 106.418C117.981 101.002 109.663 98.9592 104.831 97.3847C101.45 96.283 98.3357 95.2683 95.5358 93.718C93.8403 92.7793 94.2175 92.5052 93.9063 94.2557C93.7465 95.1541 93.5501 96.0839 93.3505 97.0288C92.8854 99.2307 92.4025 101.517 92.3481 103.603C92.2622 106.894 89.7696 107.182 86.748 106.422C83.3587 105.57 79.188 104.424 77.0171 101.822C76.1542 100.788 76.5844 100.405 75.2093 101.4C73.9159 102.336 73.0659 103.506 72.4861 104.93C71.6042 107.096 71.3192 109.876 71.0728 113.305C71.0092 114.19 69.4706 114.112 69.5249 113.227C69.5034 110.606 69.0222 107.896 67.8346 105.466C67.1633 104.092 66.2642 102.807 65.0921 101.678C64.053 100.678 64.388 100.883 63.5996 101.778C61.2188 104.483 56.7744 105.935 53.153 106.621C49.9972 107.22 48.4361 106.749 48.354 103.603C48.2697 100.375 47.2807 97.1325 46.7402 93.9356C46.5024 92.5291 46.8275 92.6433 45.5836 93.399C43.0641 94.9297 40.1073 95.8849 36.9394 96.9081C32.4795 98.3485 24.1767 100.617 22.8534 105.431C22.3618 107.219 22.5773 109.23 23.0252 110.907C23.1641 111.428 22.2574 111.612 22.1185 111.091C21.6443 109.316 21.4195 107.174 21.9503 105.243C22.2628 104.106 23.0151 103.269 21.5587 104.684C19.3218 106.857 17.6354 109.603 16.533 113.324V113.325ZM57.6883 39.9982C57.4787 40.4041 56.7717 40.126 56.9813 39.7201C59.0922 35.6626 62.8067 33.7533 67.8773 33.7533C68.3882 33.7533 68.3882 34.4313 67.8773 34.4313C63.1105 34.4313 59.6738 36.1817 57.6883 39.9982ZM90.6028 47.0768C90.6587 46.3864 90.5965 45.5215 90.4023 44.5466C90.1486 43.2732 89.6736 41.8334 88.947 40.3686C82.0378 26.4399 55.9761 25.8434 49.7499 40.5511C49.0088 42.3016 48.6872 43.9532 48.7639 45.2342C48.8596 46.8313 49.1848 47.1328 50.5726 47.6358C53.6476 48.7505 56.4021 49.3084 58.9771 49.1233C61.7054 48.9271 64.2687 47.8884 66.8488 45.7809C68.2259 44.6559 69.2732 45.1154 70.026 46.4461C70.6204 47.4968 70.9465 47.1238 71.9444 46.3191C72.9816 45.4827 73.9176 44.5818 74.9326 43.7367C77.0386 41.9831 78.1201 41.829 81.1119 44.5668C82.4015 45.747 83.9153 46.7912 85.5813 47.4931C86.6929 47.9614 87.8724 48.277 89.0974 48.3772C90.5244 48.4939 90.4984 48.364 90.6027 47.0769L90.6028 47.0768ZM88.3159 49.6543C87.1277 49.4949 85.9869 49.166 84.9077 48.7114C83.0629 47.9342 81.3986 46.7889 79.9893 45.4991C77.9347 43.619 77.2524 43.6744 76.0007 44.7167C74.9796 45.5669 74.038 46.4733 72.9943 47.315C71.2796 48.6977 69.7769 49.0609 68.6363 47.0446C68.2775 46.4104 68.3649 46.3903 67.9048 46.7661C65.047 49.1005 62.18 50.253 59.1045 50.4741C56.69 50.6477 54.1699 50.2422 51.4411 49.3814C50.0035 48.9279 50.1655 48.6867 50.2365 50.1064C50.3777 52.9301 50.8939 55.447 51.6854 58.1459C51.9368 59.01 50.4317 59.3436 50.1803 58.4796C49.9032 57.5346 49.63 56.5778 49.4167 55.6205C47.9174 55.8253 47.2298 56.8116 46.9892 58.0601C46.4572 60.8214 48.1409 64.8303 50.4716 66.6738C51.7498 67.6848 52.6494 69.4577 53.6932 71.5147C56.156 76.368 59.4784 82.9154 70.1067 82.9265C80.735 82.9154 84.0574 76.368 86.5202 71.5147C87.5639 69.4578 88.4636 67.6848 89.7417 66.6738C91.2469 65.4833 92.4352 63.4628 92.9889 61.4356C93.5112 59.5236 93.7798 56.0485 90.8148 55.6236C90.0123 55.5085 90.1759 55.4749 90.0284 56.1003C89.8412 56.8943 89.6294 57.686 89.3966 58.4796C89.1452 59.3436 87.6401 59.01 87.8916 58.1459C88.6067 55.7076 89.1261 53.2484 89.3168 50.7424C89.4099 49.5194 89.5677 49.8222 88.3159 49.6543L88.3159 49.6543ZM70.1066 84.2773C64.115 84.2711 60.2652 82.4108 57.5802 79.8984C55.6694 78.1105 56.4831 78.762 56.8692 80.9006C57.4435 84.0808 57.6449 87.5884 56.754 90.42C57.3963 91.5648 58.182 92.7208 59.0453 93.8301C60.6677 95.9147 62.5548 97.8225 64.2765 99.1771C66.5767 100.741 68.1863 102.737 69.2607 104.936C70.7708 108.027 69.7697 107.56 71.0235 104.48C71.8756 102.387 73.2318 100.765 75.4997 99.5655C79.9101 97.2321 82.163 95.2097 84.2463 90.907C83.1474 87.85 83.3998 82.3705 83.6287 80.638C83.9919 77.8887 84.4369 78.2655 82.4503 80.0668C79.7739 82.4935 75.9636 84.2712 70.1066 84.2773L70.1066 84.2773ZM85.4852 87.0405C85.6066 86.1437 85.5863 85.2866 85.3923 84.5061C85.0386 83.0837 84.9244 82.9767 84.9149 84.443C84.9091 85.3438 84.9445 86.2153 85.0245 87.0588C85.1795 88.6912 85.2643 88.6727 85.4852 87.0405H85.4852ZM55.2255 83.9693C54.929 84.8996 55.0357 85.9653 55.288 86.9459C55.66 88.3916 55.6995 88.3131 55.7674 86.9055C55.8109 86.0041 55.7894 85.0497 55.7129 84.0701C55.6439 83.187 55.6043 82.7806 55.2255 83.9693ZM52.6898 83.6896C51.7962 84.1665 51.0214 84.7161 50.3733 85.3292C48.9531 86.6725 48.1349 88.3296 48.0022 90.2013C47.9301 91.2177 48.0482 92.3826 48.2547 93.6312C48.8014 96.9362 49.8141 100.228 49.9015 103.576C49.959 105.779 50.6186 105.715 52.8253 105.297C56.0369 104.688 60.2907 103.368 62.4126 100.906C63.2315 99.9557 63.1083 100.107 62.2508 99.3305C59.2855 96.6461 57.6731 94.9523 55.5985 91.4192C54.423 89.4174 53.2147 86.7098 53.5563 84.3797C53.7325 83.1779 54.4347 82.7584 52.6899 83.6896L52.6898 83.6896ZM86.881 84.1308C87.3954 86.0935 86.9891 88.4029 86.0216 90.6662C84.7522 93.6357 82.0842 97.3175 78.9189 99.372C77.7442 100.135 77.2803 99.8691 78.3239 101.084C80.2546 103.331 84.2126 104.38 87.1728 105.125C89.1638 105.625 90.7412 105.847 90.8005 103.576C90.858 101.374 91.3518 99.0365 91.8273 96.7852C92.3395 94.3604 92.83 92.0382 92.6998 90.2013C92.5671 88.3296 91.749 86.6725 90.3287 85.3292C89.5477 84.5904 88.583 83.9439 87.4478 83.4056C86.0011 82.7194 86.5988 83.0543 86.881 84.1308Z" fill="black"/>
</svg>
