<svg width="32" height="52" viewBox="0 0 32 52" fill="none" xmlns="http://www.w3.org/2000/svg">
<path d="M8.41496 2.66141C7.96076 2.45318 7.72334 2.06275 7.59947 1.58903C7.48076 1.15175 7.66141 0.688438 8.00721 0.41774C8.37883 0.12622 8.78657 -0.0351579 9.25625 0.00648793C9.70012 0.042928 10.0717 0.225128 10.2833 0.646792C10.4072 0.891461 10.3866 1.13092 10.2111 1.33395C10.0769 1.48491 9.91689 1.61506 9.75689 1.7452C9.67947 1.80767 9.63302 1.76082 9.63818 1.67232C9.63818 1.63588 9.64851 1.60465 9.66399 1.57341C9.6898 1.50053 9.7156 1.43286 9.73625 1.36518C9.79818 1.14134 9.67431 0.979959 9.44722 0.969547C9.15818 0.959136 8.97238 1.1101 9.00334 1.34436C9.02915 1.54738 9.10657 1.72958 9.25109 1.88575C9.37496 2.0159 9.5298 2.07316 9.70012 2.09919C9.90657 2.13042 10.113 2.16166 10.3246 2.17728C10.495 2.18769 10.6653 2.18248 10.8356 2.17728C10.9698 2.17207 11.104 2.13563 11.2382 2.13042C11.6511 2.1096 12.064 2.08878 12.4821 2.07837C12.9259 2.06275 13.3698 2.03152 13.8085 2.05754C14.3401 2.09398 14.8666 2.16686 15.393 2.25536C15.7646 2.31783 16.1311 2.41674 16.4872 2.53647C17.0601 2.72908 17.6227 2.95813 18.144 3.27048C18.4124 3.43186 18.6911 3.57762 18.944 3.76502C19.2795 4.00969 19.5943 4.28039 19.9143 4.55109C20.3582 4.9259 20.7143 5.3788 21.0343 5.86293C21.4266 6.44597 21.7001 7.08628 21.8085 7.78905C21.8498 8.05454 21.8808 8.32524 21.8859 8.59073C21.8962 8.90828 21.8962 9.22583 21.8601 9.54338C21.7982 10.09 21.6795 10.621 21.5143 11.1467C21.2924 11.8495 21.0085 12.5315 20.6627 13.1822C20.2911 13.8797 19.873 14.5513 19.3879 15.1708C19.2124 15.3946 19.0369 15.6289 18.8356 15.8267C18.4588 16.2015 17.9995 16.441 17.4937 16.5815C17.0808 16.696 16.6627 16.8054 16.2498 16.9147C16.0846 16.9615 15.9659 17.0657 15.8782 17.2062C15.7233 17.4561 15.6408 17.7268 15.6924 18.0183C15.7595 18.3671 16.0124 18.5545 16.3324 18.6482C16.6782 18.7419 17.0292 18.7419 17.3904 18.7107C18.2782 18.643 19.1091 18.3671 19.935 18.0547C20.3324 17.9038 20.7246 17.7112 21.0446 17.4196C21.1685 17.3051 21.2459 17.1333 21.3285 16.9824C21.7311 16.1963 22.1904 15.4467 22.7117 14.7335C22.8408 14.5617 22.975 14.3899 23.1246 14.2337C23.3466 14.0047 23.424 13.7132 23.4653 13.4164C23.4962 13.177 23.4653 12.9271 23.4446 12.6824C23.4137 12.3389 23.584 12.089 23.7853 11.8391C23.9969 11.584 24.2085 11.3289 24.3892 11.0582C24.4408 10.9802 24.4098 10.8292 24.3892 10.7199C24.3221 10.3607 24.2188 10.0119 24.1724 9.6527C24.1311 9.30912 24.1466 8.95513 24.2756 8.63238C24.3943 8.34606 24.3737 8.05454 24.3737 7.7474C24.1569 7.72658 24.095 7.56 24.0537 7.383C23.9814 7.06025 23.9091 6.7427 23.8421 6.41994C23.8059 6.24815 23.9143 6.03472 24.1001 5.97225C24.2653 5.91499 24.3324 5.81087 24.4046 5.65991C24.5853 5.27468 24.7917 4.90508 25.0085 4.54068C25.1324 4.33245 25.1788 4.12942 25.1117 3.88996C25.0446 3.64529 24.9827 3.39542 24.9724 3.14033C24.9569 2.76552 25.1943 2.4688 25.5969 2.42194C25.793 2.40112 25.9943 2.40112 26.1698 2.51565C26.3556 2.63538 26.4588 2.80717 26.4795 3.02581C26.5208 3.47871 26.6704 3.87434 27.0421 4.15545C27.1711 4.25436 27.3001 4.35847 27.4446 4.42094C27.7233 4.54588 27.9195 4.75932 28.1104 4.98837C28.1414 5.02481 28.2033 5.04042 28.2601 5.05084C28.353 5.06645 28.4562 5.05084 28.544 5.08207C28.7556 5.14974 28.7762 5.35277 28.8175 5.52976C28.8795 5.78484 28.9156 6.04513 28.9827 6.30021C29.0395 6.51885 28.9775 6.68023 28.8072 6.78955C28.8898 7.24765 29.2304 7.53397 29.4782 7.88275C29.6588 8.13263 29.7621 8.41374 29.8291 8.71046C29.9582 9.29871 30.0872 9.89216 30.2008 10.4856C30.3091 11.0426 30.3969 11.5996 30.5001 12.1567C30.6704 13.0781 30.8408 13.9943 31.0988 14.9001C31.264 15.4779 31.4085 16.0662 31.5582 16.6492C31.6304 16.9251 31.4911 17.1385 31.3208 17.3311C31.0575 17.6331 30.7014 17.784 30.3504 17.9506C29.9169 18.1536 29.4627 18.3046 28.993 18.3931C28.704 18.4452 28.415 18.492 28.1259 18.518C27.8266 18.5441 27.5272 18.5545 27.2279 18.5441C26.9337 18.5337 26.6395 18.4972 26.3608 18.3671C26.1079 18.2474 25.984 18.0339 25.9272 17.7788C25.8395 17.3884 25.7621 16.998 25.6743 16.5763C25.5143 16.8522 25.375 17.1021 25.2253 17.3468C24.8124 18.0339 24.4098 18.7263 23.9866 19.4082C23.6924 19.8819 23.3827 20.3401 23.0575 20.793C22.8666 21.0584 22.5724 21.2198 22.3091 21.4072C22.0046 21.6311 21.6382 21.6831 21.3027 21.8237C21.0085 21.9486 20.7504 22.1204 20.5079 22.3286C20.2188 22.5733 19.9762 22.8596 19.8162 23.198C19.6562 23.5312 19.4962 23.8747 19.5788 24.2704C19.6046 24.3849 19.615 24.5098 19.6046 24.6296C19.584 24.9784 19.6717 25.3011 19.7646 25.6291C19.8679 25.9935 19.9504 26.3683 20.0021 26.7431C20.064 27.2168 20.0795 27.6957 20.1156 28.1747C20.1466 28.6172 20.1672 29.0596 20.1982 29.5021C20.2137 29.7936 20.2343 30.0852 20.2498 30.3767C20.2756 30.7671 20.3066 31.1523 20.3272 31.5428C20.3427 31.7874 20.3582 32.0321 20.353 32.2768C20.3427 32.7141 20.3221 33.1461 20.3014 33.5834C20.2808 33.9478 20.255 34.3174 20.2188 34.6818C20.1827 35.0566 20.1311 35.4367 20.0898 35.8115C20.0537 36.1342 20.0227 36.4622 19.9814 36.7849C19.9246 37.2118 19.8575 37.6387 19.8008 38.0655C19.7492 38.4352 19.7182 38.81 19.6614 39.1796C19.5891 39.6741 19.5014 40.1687 19.4137 40.658C19.3208 41.1682 19.2124 41.6835 19.104 42.1937C19.0059 42.657 18.9027 43.1203 18.7788 43.5732C18.5775 44.302 18.3659 45.0308 18.144 45.7492C18.0098 46.1865 17.8343 46.6134 17.6898 47.0506C17.5917 47.3422 17.5195 47.6441 17.6433 47.9408C17.7517 48.2011 17.9427 48.4093 18.1595 48.5863C18.4846 48.8466 18.8201 49.0965 19.0317 49.4713C19.1091 49.6066 19.2279 49.7212 19.2898 49.8669C19.3775 50.07 19.295 50.2469 19.0937 50.3094C18.8304 50.3875 18.5672 50.45 18.2988 50.502C17.9892 50.5645 17.6743 50.6113 17.3595 50.6634C17.2098 50.6894 17.055 50.7103 16.9053 50.7207C16.4201 50.7519 15.9298 50.7675 15.4446 50.8092C15.1091 50.8404 14.913 50.679 14.784 50.3979C14.7169 50.2574 14.6601 50.1064 14.593 49.9502C14.4743 50.3094 14.1491 50.3407 13.855 50.3979C13.3595 50.4916 12.8588 50.5645 12.3582 50.6426C11.9092 50.7103 11.4601 50.7571 11.0111 50.8352C10.5517 50.9133 10.0975 51.0122 9.64334 51.1059C9.03947 51.236 8.44076 51.3974 7.83689 51.4911C7.36721 51.564 6.88205 51.564 6.40205 51.5796C6.26786 51.5848 6.1285 51.5432 5.99431 51.5015C5.6898 51.4078 5.58141 51.1215 5.7827 50.8716C5.98399 50.6218 6.21625 50.3875 6.46399 50.1793C6.92334 49.794 7.42915 49.4817 7.97625 49.2422C8.47689 49.0288 8.98786 48.8518 9.49883 48.6592C9.60205 48.6228 9.70528 48.5915 9.80334 48.5447C9.96334 48.4562 10.0511 48.3156 10.0614 48.1282C10.0821 47.743 9.96334 47.3786 9.83431 47.0246C9.64334 46.478 9.40592 45.9418 9.24076 45.3848C9.00334 44.5831 8.79689 43.7658 8.60076 42.9485C8.39947 42.1312 8.21883 41.3139 8.04334 40.4914C7.97625 40.1635 7.95044 39.8303 7.90399 39.4971C7.85238 39.1379 7.80076 38.7735 7.74399 38.4143C7.68722 38.0343 7.62528 37.6491 7.55302 37.2691C7.47044 36.837 7.36721 36.4153 7.28463 35.9833C7.2227 35.6553 7.1556 35.3273 7.13496 34.9942C7.09883 34.4111 7.07818 33.8281 7.08334 33.245C7.08851 32.8546 7.14528 32.459 7.18141 32.0686C7.19689 31.9072 7.2227 31.7458 7.23302 31.5844C7.23302 31.5428 7.20205 31.4699 7.16076 31.4543C6.51044 31.1107 5.86012 30.7775 5.20979 30.4392C4.65238 30.1476 4.0898 29.8665 3.55302 29.5438C3.21754 29.346 2.94915 29.0544 2.6756 28.7681C2.18528 28.2476 1.7156 27.7062 1.10141 27.3157C0.616247 27.0086 0.275602 26.5557 0.0639888 26.0143C-0.0237531 25.78 -0.0237531 25.525 0.0794727 25.2803C0.275602 24.817 0.564634 24.4109 0.833021 23.9893C1.13238 23.5208 1.41625 23.0418 1.72076 22.5785C1.92205 22.2766 2.13367 21.9799 2.36592 21.6987C2.71689 21.2615 3.07302 20.8294 3.4498 20.4181C3.75947 20.085 4.10528 19.783 4.44592 19.4811C4.78141 19.1792 5.17367 18.9657 5.57625 18.7731C6.07689 18.5389 6.59818 18.3827 7.13496 18.2682C7.4756 18.1953 7.81109 18.1172 8.14657 18.0235C8.27044 17.9923 8.38915 17.9246 8.49754 17.8569C8.64721 17.7632 8.68851 17.5654 8.57496 17.4353C8.44076 17.2895 8.29109 17.1489 8.13109 17.0292C7.73883 16.7325 7.32592 16.4566 6.93883 16.1494C6.58786 15.8683 6.2627 15.556 5.93238 15.2489C5.80334 15.1291 5.69496 14.9886 5.58657 14.848C5.41109 14.619 5.38528 14.3379 5.33883 14.0672C5.25625 13.6299 5.25109 13.1822 5.25625 12.7397C5.26657 12.292 5.31302 11.8495 5.43173 11.4174C5.54528 11.0062 5.68463 10.6001 5.81883 10.1941C5.93238 9.86093 5.9427 9.52256 5.89625 9.17377C5.82399 8.64799 5.74657 8.11701 5.79302 7.58603C5.82915 7.14874 5.94786 6.72708 6.10786 6.31583C6.4898 5.32674 7.04721 4.43656 7.63044 3.562C7.76979 3.35377 7.90915 3.14554 8.07431 2.95813C8.15173 2.82279 8.29109 2.75511 8.41496 2.66141ZM14.273 48.6176C14.273 48.5707 14.2782 48.5239 14.273 48.4822C14.2111 47.9408 14.2421 47.4202 14.495 46.9205C14.6704 46.5769 14.7788 46.2125 14.753 45.8169C14.7427 45.5982 14.7272 45.3796 14.7272 45.1662C14.7272 44.7653 14.7324 44.3645 14.753 43.9636C14.7737 43.5888 14.815 43.214 14.8562 42.8444C14.8872 42.5633 14.9233 42.2874 14.9646 42.0063C14.9904 41.8137 15.0472 41.6263 15.0679 41.4389C15.0988 41.1317 15.0214 40.8298 14.9182 40.5487C14.6756 39.8928 14.4227 39.242 14.1646 38.5913C14.0562 38.3258 13.8085 38.2998 13.6279 38.5289C13.3543 38.8776 13.1014 39.242 12.9208 39.6481C12.7762 39.9761 12.6782 40.3196 12.7298 40.6736C12.7969 41.1421 12.9053 41.6002 12.993 42.0688C13.0756 42.5112 13.1582 42.9589 13.2253 43.4014C13.2821 43.771 13.3233 44.1458 13.3595 44.5154C13.4008 44.9631 13.4421 45.416 13.4627 45.8637C13.473 46.0824 13.4472 46.3062 13.4421 46.5301C13.4369 46.7071 13.3956 46.8893 13.4266 47.061C13.4937 47.4671 13.6846 47.8315 13.8756 48.1907C13.9685 48.3625 14.0614 48.5395 14.273 48.6176ZM8.23947 27.4771C8.25496 27.2012 8.26528 26.9253 8.28076 26.6494C8.30657 26.1028 8.35302 25.5562 8.35818 25.0148C8.36334 24.5098 8.32722 23.9997 8.31173 23.4947C8.30141 23.2605 8.23947 23.047 8.12592 22.844C8.03302 22.6774 7.8885 22.6254 7.71302 22.7191C7.59431 22.7815 7.48592 22.87 7.3827 22.9533C7.03689 23.2396 6.68592 23.5155 6.3556 23.8175C6.1027 24.0465 5.86528 24.2964 5.6485 24.5619C5.49883 24.7441 5.39044 24.9627 5.27689 25.1762C5.20463 25.3063 5.26657 25.4156 5.37496 25.4937C5.48334 25.5718 5.61238 25.6239 5.7156 25.7072C6.06657 25.9831 6.37109 26.3162 6.78915 26.4932C7.1298 26.639 7.36721 26.9305 7.65625 27.1491C7.83173 27.2793 8.00205 27.4407 8.23947 27.4771Z" fill="black"/>
</svg>
