<svg width="36" height="36" viewBox="0 0 36 36" fill="none" xmlns="http://www.w3.org/2000/svg">
<path d="M34.2313 22.0618L27.4967 18L34.2397 13.9382C34.4547 13.8097 34.6416 13.6398 34.7894 13.4385C34.9372 13.2372 35.0429 13.0086 35.1003 12.7661C35.1576 12.5236 35.1655 12.2721 35.1233 12.0265C35.0812 11.781 34.99 11.5463 34.855 11.3363L30.8724 5.18708C30.7373 4.97756 30.5612 4.79707 30.3545 4.65626C30.1479 4.51544 29.9149 4.41718 29.6694 4.36726C29.4238 4.31735 29.1707 4.31679 28.9249 4.36564C28.6791 4.41448 28.4457 4.51173 28.2385 4.65164L22.979 8.18638L23.1349 1.91169C23.1411 1.66319 23.0972 1.41598 23.0057 1.18456C22.9143 0.953144 22.7772 0.742196 22.6025 0.564106C22.4278 0.386016 22.219 0.244375 21.9884 0.147503C21.7577 0.0506314 21.5099 0.000481712 21.2595 0H13.8928C13.6424 0.000481712 13.3946 0.0506314 13.164 0.147503C12.9334 0.244375 12.7246 0.386016 12.5498 0.564106C12.3751 0.742196 12.238 0.953144 12.1466 1.18456C12.0552 1.41598 12.0113 1.66319 12.0175 1.91169L12.1734 8.18638L6.93074 4.65164C6.72348 4.51173 6.49007 4.41448 6.2443 4.36564C5.99854 4.31679 5.7454 4.31735 5.49985 4.36726C5.2543 4.41718 5.02132 4.51544 4.81468 4.65626C4.60804 4.79707 4.43194 4.97756 4.29678 5.18708L0.297363 11.3363C0.162023 11.5458 0.070276 11.78 0.027525 12.0252C-0.015226 12.2705 -0.00811742 12.5217 0.0484324 12.7642C0.104982 13.0066 0.20983 13.2354 0.356804 13.437C0.503777 13.6386 0.689905 13.809 0.904229 13.9382L7.64718 18L0.904229 22.0618C0.689905 22.191 0.503777 22.3614 0.356804 22.563C0.20983 22.7646 0.104982 22.9934 0.0484324 23.2358C-0.00811742 23.4783 -0.015226 23.7295 0.027525 23.9748C0.070276 24.22 0.162023 24.4542 0.297363 24.6637L4.27992 30.8129C4.41508 31.0224 4.59119 31.2029 4.79782 31.3437C5.00446 31.4846 5.23744 31.5828 5.48299 31.6327C5.72854 31.6827 5.98168 31.6832 6.22745 31.6344C6.47322 31.5855 6.70663 31.4883 6.91389 31.3484L12.1565 27.8136L12.0006 34.0883C11.9944 34.3368 12.0383 34.584 12.1298 34.8154C12.2212 35.0469 12.3583 35.2578 12.533 35.4359C12.7077 35.614 12.9165 35.7556 13.1471 35.8525C13.3778 35.9494 13.6256 35.9995 13.876 36H21.2595C21.5099 35.9995 21.7577 35.9494 21.9884 35.8525C22.219 35.7556 22.4278 35.614 22.6025 35.4359C22.7772 35.2578 22.9143 35.0469 23.0057 34.8154C23.0972 34.584 23.1411 34.3368 23.1349 34.0883L22.979 27.8136L28.2216 31.3484C28.4289 31.4883 28.6623 31.5855 28.9081 31.6344C29.1538 31.6832 29.407 31.6827 29.6525 31.6327C29.8981 31.5828 30.131 31.4846 30.3377 31.3437C30.5443 31.2029 30.7204 31.0224 30.8556 30.8129L34.855 24.6637C34.9903 24.4542 35.0821 24.22 35.1248 23.9748C35.1676 23.7295 35.1605 23.4783 35.1039 23.2358C35.0474 22.9934 34.9425 22.7646 34.7956 22.563C34.6486 22.3614 34.4625 22.191 34.2481 22.0618H34.2313ZM33.2873 23.6723L29.2583 29.8341L21.0446 24.304L21.2595 34.1845H13.8928L14.1078 24.304L5.84766 29.8215L1.8651 23.6723L11.2041 18L1.8651 12.3277L5.84766 6.17848L14.1078 11.696L13.8928 1.81548H21.2595L21.2932 1.84894L21.0446 11.696L29.2583 6.16593L33.2873 12.3277V12.3737L23.9483 18L33.2746 23.6263L33.2873 23.6723Z" fill="black"/>
<path d="M18.7807 13.2812C18.8059 13.9004 18.6458 15.4314 16.7536 16.7742C15.8011 17.4476 15.2912 18.1504 15.2322 18.8657C15.2204 19.1462 15.2696 19.4259 15.3765 19.6857C15.4834 19.9456 15.6455 20.1796 15.8517 20.3717C16.1021 20.6248 16.3681 20.8623 16.6482 21.0828V19.8906C16.4859 19.7383 16.388 19.5304 16.3743 19.3091C16.3846 19.1186 16.4385 18.9329 16.532 18.7662C16.6255 18.5995 16.756 18.4561 16.9137 18.347L17.3351 17.9915C18.3592 17.1548 20.0703 15.7577 20.0408 14.6449C20.0281 13.7456 19.2063 13.3984 18.7807 13.2812Z" fill="black"/>
<path d="M18.6509 28.144C18.6545 27.9452 18.6187 27.7476 18.5456 27.5625C18.536 28.1376 18.3541 28.6968 18.023 29.1688C17.8061 29.3978 17.6358 29.6663 17.5215 29.9594C17.5925 29.9536 17.6622 29.9366 17.728 29.9092C18.377 29.6833 18.6678 29.1228 18.6509 28.144Z" fill="black"/>
<path d="M17.2397 7.1743C17.124 7.15607 17.0071 7.14628 16.89 7.14502C15.7479 7.14502 14.6016 7.98165 14.6016 9.80131C14.6016 11.4285 15.9164 12.8341 16.5359 13.403V11.6168C16.2513 11.353 16.034 11.0257 15.9021 10.662C15.7702 10.2982 15.7274 9.90859 15.7774 9.52522C15.8406 9.03998 15.9333 8.60911 16.38 8.60911C16.5082 8.6147 16.6354 8.63434 16.7593 8.66768C17.0351 8.73548 17.318 8.77058 17.6022 8.77226H17.6865C18.0236 8.77226 18.2006 8.61748 18.2217 8.33303C18.2162 8.05755 18.1157 7.79227 17.937 7.58141C17.7583 7.37056 17.5122 7.22687 17.2397 7.1743ZM17.2397 7.73484C17.0346 7.74341 16.8295 7.71796 16.6329 7.65954C17.0627 7.35836 17.4294 7.69719 17.2229 7.73484H17.2397Z" fill="black"/>
<path d="M16.8891 6.95645C17.0162 6.95563 17.143 6.96542 17.2684 6.98573C18.3894 7.15724 18.9331 8.93089 17.6899 8.96435H17.5761C17.2916 8.95994 17.0087 8.92203 16.7332 8.85141L16.8301 16.4898C17.6366 15.9328 18.2305 15.1223 18.5159 14.1891L18.6254 5.63458C18.6266 5.55203 18.6111 5.47008 18.5801 5.39349C18.549 5.3169 18.5029 5.2472 18.4445 5.18843C18.3861 5.12967 18.3165 5.08301 18.2398 5.05116C18.163 5.01932 18.0807 5.00292 17.9975 5.00293H17.2979C17.2147 5.00292 17.1324 5.01932 17.0557 5.05116C16.9789 5.08301 16.9093 5.12967 16.8509 5.18843C16.7925 5.2472 16.7464 5.3169 16.7153 5.39349C16.6843 5.47008 16.6689 5.55203 16.67 5.63458V6.96482L16.8891 6.95645Z" fill="black"/>
<path d="M19.8086 22.5385C19.8086 21.7771 19.0121 21.2835 18.5865 21.0869V22.7602L18.498 22.8145C18.3758 22.894 18.2156 23.007 18.0428 23.1366L17.6804 23.4295C16.9134 24.082 16.041 25.0107 16.041 25.6674C16.0942 26.2311 16.3378 26.7603 16.7322 27.1692V25.9142C16.7385 25.7251 16.8065 25.5431 16.926 25.3955C17.1528 25.1182 17.4249 24.8807 17.731 24.6928L17.7689 24.6677L18.106 24.4501L18.342 24.2954C19.0753 23.8101 19.8086 23.2663 19.8086 22.5385Z" fill="black"/>
<path d="M18.3689 22.6599L18.4195 17.3223C17.8927 17.7908 17.3659 18.2007 17.0246 18.4935C16.9521 18.5537 16.8844 18.6195 16.8223 18.6901L16.9066 23.8563C17.3523 23.4098 17.8423 23.009 18.3689 22.6599Z" fill="black"/>
<path d="M17.7911 30.089C17.6986 30.1269 17.6002 30.1481 17.5003 30.1518C17.0788 30.1518 17.5003 29.4908 17.8796 29.0432C18.1093 28.7417 18.2547 28.3852 18.301 28.01L18.3474 24.5171C17.6351 24.9731 16.965 25.3788 16.9355 25.8599L17.003 31.026C17.003 31.1925 17.0696 31.3521 17.1881 31.4697C17.3067 31.5874 17.4675 31.6535 17.6351 31.6535C17.8028 31.6535 17.9636 31.5874 18.0821 31.4697C18.2007 31.3521 18.2673 31.1925 18.2673 31.026V29.8171C18.127 29.9365 17.9655 30.0287 17.7911 30.089Z" fill="black"/>
</svg>
