<svg width="10" height="15" viewBox="0 0 10 15" fill="none" xmlns="http://www.w3.org/2000/svg">
<path d="M4.94937 0C8.28751 0 11.0588 3.34841 9.40933 7.19727C8.64879 8.97183 7.63839 10.8649 6.82242 12.3086C6.41372 13.0317 6.05172 13.6445 5.79214 14.0771C5.66233 14.2935 5.55855 14.4655 5.48648 14.583C5.45046 14.6417 5.42251 14.687 5.40347 14.7178C5.39395 14.7331 5.38596 14.745 5.38101 14.7529C5.37864 14.7567 5.37641 14.7597 5.37515 14.7617L5.37418 14.7637L5.3732 14.7646C5.28183 14.9108 5.12177 15 4.94937 15C4.77702 15 4.61689 14.9108 4.52554 14.7646L4.52457 14.7637L4.52359 14.7617C4.52232 14.7597 4.52013 14.7568 4.51773 14.7529C4.51281 14.745 4.50568 14.733 4.49625 14.7178C4.47724 14.6871 4.44918 14.6416 4.41324 14.583C4.34117 14.4655 4.23642 14.2935 4.1066 14.0771C3.84702 13.6445 3.48499 13.0316 3.07632 12.3086C2.2604 10.865 1.25089 8.97171 0.490387 7.19727C-1.1591 3.34845 1.61129 8.16219e-05 4.94937 0ZM4.94937 1C2.28761 1.00008 0.0590094 3.65171 1.40933 6.80273C2.14878 8.52812 3.13842 10.3851 3.94742 11.8164C4.34335 12.5169 4.69447 13.1129 4.94937 13.5381C5.20427 13.1129 5.55538 12.5169 5.95132 11.8164C6.76033 10.3851 7.75094 8.52812 8.49039 6.80273C9.84049 3.65178 7.61112 1 4.94937 1Z" fill="black"/>
<path d="M4.81855 2.60935L4.09959 3.90119H2.68357C2.64654 3.90111 2.61015 3.91117 2.57806 3.93036C2.54597 3.94955 2.51931 3.97718 2.50077 4.01048C2.48223 4.04378 2.47245 4.08156 2.47243 4.12004C2.47242 4.15851 2.48215 4.1963 2.50067 4.22962L3.20867 5.49956L2.50067 6.7695C2.48215 6.80282 2.47242 6.84062 2.47243 6.87909C2.47245 6.91756 2.48223 6.95535 2.50077 6.98864C2.51931 7.02194 2.54597 7.04958 2.57806 7.06876C2.61015 7.08795 2.64654 7.09801 2.68357 7.09793H4.09959L4.81855 8.38977C4.83699 8.42326 4.86362 8.45109 4.89573 8.47045C4.92785 8.48981 4.96432 8.5 5.00145 8.5C5.03858 8.5 5.07506 8.48981 5.10717 8.47045C5.13929 8.45109 5.16592 8.42326 5.18436 8.38977L5.90374 7.09793H7.31934C7.35636 7.09801 7.39275 7.08795 7.42484 7.06876C7.45694 7.04958 7.48359 7.02194 7.50214 6.98864C7.52068 6.95535 7.53046 6.91756 7.53047 6.87909C7.53049 6.84062 7.52075 6.80282 7.50224 6.7695L6.79423 5.49956L7.50224 4.22962C7.52075 4.1963 7.53049 4.15851 7.53047 4.12004C7.53046 4.08156 7.52068 4.04378 7.50214 4.01048C7.48359 3.97718 7.45694 3.94955 7.42484 3.93036C7.39275 3.91117 7.35636 3.90111 7.31934 3.90119H5.90332L5.18478 2.60935C5.16617 2.57609 5.13948 2.54848 5.10738 2.52929C5.07529 2.5101 5.03891 2.5 5.00188 2.5C4.96485 2.5 4.92846 2.5101 4.89637 2.52929C4.86427 2.54848 4.83716 2.57609 4.81855 2.60935ZM5.00145 3.15586L5.41615 3.90119H4.58676L5.00145 3.15586ZM3.04895 4.3391H3.85515L3.45268 5.06253L3.04895 4.3391ZM4.34233 4.3391H5.661L6.30706 5.49956L5.66058 6.66002H4.34233L3.69585 5.49956L4.34233 4.3391ZM6.14818 4.3391H6.95396L6.55064 5.06253L6.14818 4.3391ZM3.45226 5.9366L3.85473 6.66002H3.04895L3.45226 5.9366ZM6.55064 5.9366L6.95396 6.66002H6.14775L6.55064 5.9366ZM4.58676 7.09793H5.41615L5.00145 7.84326L4.58676 7.09793Z" fill="black"/>
</svg>
