<svg width="24" height="24" viewBox="0 0 24 24" fill="none" xmlns="http://www.w3.org/2000/svg">
<path d="M9 13H11V10.25H13V13H15V8.25L12 6.25L9 8.25V13ZM12 19.35C14.0333 17.4833 15.5417 15.7877 16.525 14.263C17.5083 12.7383 18 11.384 18 10.2C18 8.38333 17.421 6.896 16.263 5.738C15.105 4.58 13.684 4.00067 12 4C10.316 3.99933 8.89533 4.57867 7.738 5.738C6.58067 6.89733 6.00133 8.38467 6 10.2C6 11.3833 6.49167 12.7377 7.475 14.263C8.45833 15.7883 9.96667 17.484 12 19.35ZM12 21.325C11.7667 21.325 11.5333 21.2833 11.3 21.2C11.0667 21.1167 10.8583 20.9917 10.675 20.825C9.59167 19.825 8.63333 18.85 7.8 17.9C6.96667 16.95 6.271 16.0293 5.713 15.138C5.155 14.2467 4.73 13.3883 4.438 12.563C4.146 11.7377 4 10.95 4 10.2C4 7.7 4.80433 5.70833 6.413 4.225C8.02167 2.74167 9.884 2 12 2C14.116 2 15.9787 2.74167 17.588 4.225C19.1973 5.70833 20.0013 7.7 20 10.2C20 10.95 19.8543 11.7377 19.563 12.563C19.2717 13.3883 18.8467 14.2467 18.288 15.138C17.7293 16.0293 17.0333 16.95 16.2 17.9C15.3667 18.85 14.4083 19.825 13.325 20.825C13.1417 20.9917 12.9333 21.1167 12.7 21.2C12.4667 21.2833 12.2333 21.325 12 21.325Z" fill="black"/>
</svg>
