<svg xmlns="http://www.w3.org/2000/svg" width="35" height="36" viewBox="0 0 35 36" fill="none">
  <path d="M34.5146 23.0988L26.0671 18L34.5146 12.9012C34.6291 12.8317 34.7284 12.7402 34.8068 12.6321C34.8852 12.524 34.9411 12.4015 34.9712 12.2717C35.0013 12.1418 35.005 12.0073 34.9821 11.8761C34.9592 11.7448 34.9102 11.6194 34.8379 11.5072L30.6524 5.03544C30.5805 4.92301 30.4866 4.8261 30.3762 4.75048C30.2658 4.67486 30.1412 4.62207 30.0098 4.59527C29.8784 4.56847 29.743 4.56819 29.6115 4.59446C29.48 4.62073 29.3552 4.67301 29.2445 4.74818L22.1794 9.51748L22.3921 1.02652C22.3955 0.893281 22.3721 0.76071 22.3232 0.63658C22.2744 0.51245 22.201 0.399261 22.1075 0.303649C22.014 0.208038 21.9022 0.13193 21.7787 0.0797879C21.6552 0.0276458 21.5225 0.000519624 21.3883 0H13.6257C13.4915 0.000519624 13.3587 0.0276458 13.2352 0.0797879C13.1117 0.13193 12.9999 0.208038 12.9064 0.303649C12.8129 0.399261 12.7396 0.51245 12.6907 0.63658C12.6419 0.76071 12.6184 0.893281 12.6218 1.02652L12.8345 9.51748L5.75668 4.74818C5.64597 4.67301 5.52116 4.62073 5.38969 4.59446C5.25821 4.56819 5.12276 4.56847 4.99139 4.59527C4.86002 4.62207 4.73543 4.67486 4.62503 4.75048C4.51463 4.8261 4.42068 4.92301 4.34877 5.03544L0.159077 11.5072C0.086748 11.6194 0.0376966 11.7448 0.0147967 11.8761C-0.00810333 12.0073 -0.0043913 12.1418 0.0257154 12.2717C0.0558221 12.4015 0.111718 12.524 0.190127 12.6321C0.268536 12.7402 0.367882 12.8317 0.482343 12.9012L8.93405 18L0.486596 23.0988C0.372136 23.1683 0.27279 23.2598 0.194381 23.3679C0.115971 23.476 0.0600757 23.5985 0.029969 23.7283C-0.0001377 23.8582 -0.00384973 23.9927 0.0190503 24.1239C0.0419502 24.2552 0.0910016 24.3806 0.16333 24.4928L4.35303 30.9646C4.42493 31.077 4.51888 31.1739 4.62928 31.2495C4.73968 31.3251 4.86427 31.3779 4.99564 31.4047C5.12701 31.4315 5.26246 31.4318 5.39394 31.4055C5.52542 31.3793 5.65023 31.327 5.76094 31.2518L12.8217 26.4825L12.6091 34.9735C12.6057 35.1067 12.6291 35.2393 12.678 35.3634C12.7268 35.4875 12.8002 35.6007 12.8937 35.6964C12.9872 35.792 13.0989 35.8681 13.2224 35.9202C13.346 35.9724 13.4787 35.9995 13.6129 36H21.3755C21.5097 35.9995 21.6425 35.9724 21.766 35.9202C21.8895 35.8681 22.0013 35.792 22.0948 35.6964C22.1883 35.6007 22.2616 35.4875 22.3105 35.3634C22.3593 35.2393 22.3828 35.1067 22.3794 34.9735L22.1794 26.4825L29.2445 31.2518C29.3552 31.327 29.48 31.3793 29.6115 31.4055C29.743 31.4318 29.8784 31.4315 30.0098 31.4047C30.1412 31.3779 30.2658 31.3251 30.3762 31.2495C30.4866 31.1739 30.5805 31.077 30.6524 30.9646L34.8421 24.4928C34.9143 24.3804 34.9631 24.2547 34.9856 24.1233C35.0082 23.9919 35.0041 23.8573 34.9736 23.7274C34.9431 23.5975 34.8868 23.475 34.808 23.3671C34.7291 23.2592 34.6294 23.1679 34.5146 23.0988ZM17.2199 4.87491H17.8877C17.9716 4.8749 18.0547 4.89146 18.1322 4.92362C18.2096 4.95578 18.2799 5.0029 18.3388 5.06225C18.3978 5.12159 18.4443 5.19198 18.4757 5.26932C18.507 5.34667 18.5226 5.42942 18.5214 5.51279L18.4108 14.1516C18.1228 15.094 17.5234 15.9125 16.7094 16.475L16.6499 8.76132C16.9279 8.83264 17.2135 8.87093 17.5006 8.87538H17.5899C18.866 8.84159 18.313 7.05046 17.1646 6.87726C17.038 6.85675 16.91 6.84686 16.7818 6.84769H16.5776V5.50434C16.5776 5.42097 16.5942 5.33842 16.6266 5.2615C16.659 5.18458 16.7065 5.11481 16.7662 5.05625C16.826 4.99769 16.8968 4.95151 16.9747 4.92038C17.0526 4.88925 17.1359 4.87379 17.2199 4.87491ZM16.7945 7.03778C16.9128 7.03906 17.0308 7.04895 17.1476 7.06736C17.4194 7.12383 17.6639 7.2704 17.8409 7.48301C18.0179 7.69563 18.1169 7.96168 18.1216 8.2375C18.1003 8.52476 17.9217 8.65994 17.5814 8.68106H17.5006C17.2138 8.67937 16.9283 8.64392 16.6499 8.57545C16.5249 8.54178 16.3965 8.52195 16.2671 8.51631C15.8162 8.51631 15.7226 8.93875 15.6588 9.44145C15.6084 9.82859 15.6516 10.2221 15.7847 10.5894C15.9179 10.9567 16.1372 11.2872 16.4245 11.5536V13.3532C15.7992 12.7787 14.4721 11.3593 14.4721 9.71603C14.4976 7.86153 15.6546 7.03778 16.8073 7.03778H16.7945ZM18.1769 31.1547C18.1769 31.3227 18.1097 31.4839 17.99 31.6027C17.8704 31.7216 17.7081 31.7883 17.5389 31.7883C17.3697 31.7883 17.2074 31.7216 17.0877 31.6027C16.9681 31.4839 16.9009 31.3227 16.9009 31.1547L16.8328 25.9376C16.8626 25.4518 17.5389 25.042 18.2577 24.5816L18.2109 28.1089C18.1642 28.4878 18.0174 28.8478 17.7856 29.1523C17.39 29.6043 16.9859 30.2718 17.4028 30.2718C17.5036 30.2681 17.603 30.2466 17.6963 30.2084C17.8738 30.148 18.0383 30.0548 18.1812 29.9338L18.1769 31.1547ZM17.641 30.0268C17.5746 30.0544 17.5043 30.0715 17.4325 30.0774C17.5479 29.7814 17.7198 29.5103 17.9387 29.279C18.2729 28.8024 18.4565 28.2376 18.4661 27.6569C18.54 27.8438 18.5761 28.0433 18.5725 28.2441C18.6023 29.2326 18.3088 29.7986 17.6537 30.0268H17.641ZM18.2747 24.3365L18.0365 24.4928L17.6963 24.7125L17.658 24.7379C17.3501 24.9238 17.0755 25.1594 16.8456 25.4349C16.7223 25.5873 16.6535 25.776 16.6499 25.9714V27.2387C16.2463 26.8264 15.9958 26.2902 15.9396 25.7179C15.9396 25.0547 16.82 24.1169 17.5942 23.4579L17.96 23.1622C18.1344 23.0312 18.296 22.9172 18.4194 22.8369L18.5087 22.782V21.0922C18.934 21.2992 19.7422 21.7893 19.7422 22.5581C19.7422 23.3269 19.0148 23.8676 18.2747 24.3365ZM16.7562 18.697C16.819 18.6257 16.8872 18.5593 16.9604 18.4985C17.3049 18.2028 17.8366 17.7888 18.3683 17.3157L18.3003 22.7059C17.7687 23.0584 17.2742 23.4632 16.8243 23.9141L16.7562 18.697ZM17.2667 18L16.8413 18.3591C16.6822 18.4693 16.5504 18.614 16.4561 18.7824C16.3617 18.9508 16.3073 19.1383 16.2969 19.3307C16.3107 19.5541 16.4095 19.764 16.5733 19.9179V21.1134C16.2907 20.8907 16.0222 20.6509 15.7694 20.3952C15.5613 20.2012 15.3977 19.965 15.2898 19.7025C15.1819 19.4401 15.1322 19.1577 15.1442 18.8744C15.2037 18.1605 15.7184 17.4508 16.6797 16.7623C18.5895 15.4062 18.7511 13.8601 18.7256 13.2349C19.151 13.3532 20.0017 13.7038 20.0017 14.6205C20.0272 15.7357 18.3003 17.1551 17.2667 18Z" fill="black" />
</svg>
