<svg xmlns="http://www.w3.org/2000/svg" width="36" height="36" viewBox="0 0 36 36" fill="none">
  <circle cx="18" cy="18" r="17.75" stroke="black" stroke-width="0.5" />
  <path d="M10.9582 0.00157387C10.7637 0.0145641 10.5873 0.125572 10.4889 0.296803L6.84661 6.65148H0.588855C0.378528 6.65148 0.184042 6.76485 0.0788726 6.94789C-0.0262909 7.13212 -0.0262909 7.35768 0.0788726 7.54188L3.2079 13.0002L0.0788726 18.4585C-0.0262909 18.6416 -0.0262909 18.8683 0.0788726 19.0513C0.184036 19.2355 0.378545 19.3477 0.588855 19.3489H6.84661L10.4889 25.7036C10.5952 25.8866 10.7897 26 11 26C11.2103 26 11.4048 25.8866 11.5111 25.7036L15.1545 19.3489H21.4111C21.6215 19.3489 21.816 19.2355 21.9211 19.0513C22.0263 18.8683 22.0263 18.6415 21.9211 18.4585L18.7921 13.0002L21.9211 7.54188C22.0263 7.35766 22.0263 7.13209 21.9211 6.94789C21.816 6.76485 21.6215 6.65148 21.4111 6.65148H15.1545L11.5111 0.296803C11.398 0.0995907 11.1832 -0.0149447 10.9582 0.00157387ZM11 1.78122L13.7919 6.65122H8.20809L11 1.78122ZM1.61091 7.83932H6.1668L3.88938 11.8133L1.61091 7.83932ZM7.52824 7.83932H14.4735L17.4317 12.9999L14.4735 18.1604H7.52824L4.56885 12.9999L7.52824 7.83932ZM15.8338 7.83932H20.3897L18.1123 11.8133L15.8338 7.83932ZM3.88799 14.188L6.16541 18.1619H1.60952L3.88799 14.188ZM18.1123 14.188L20.3897 18.1619H15.8339L18.1123 14.188ZM8.20765 19.3485H13.7915L10.9996 24.2185L8.20765 19.3485Z" transform="translate(7 5)" fill="black" />
</svg>
