<svg xmlns="http://www.w3.org/2000/svg" width="35" height="36" viewBox="0 0 37 37" fill="none">
  <g>
    <path d="M17.9677 9.50115C17.8174 9.51064 17.6811 9.59176 17.605 9.71689L14.7906 14.3607H9.95501C9.79249 14.3607 9.6422 14.4435 9.56093 14.5773C9.47967 14.7119 9.47967 14.8768 9.56093 15.0114L11.9788 19.0001L9.56093 22.9889C9.47967 23.1227 9.47967 23.2884 9.56093 23.4221C9.6422 23.5567 9.7925 23.6387 9.95501 23.6396H14.7906L17.605 28.2834C17.6872 28.4172 17.8375 28.5 18 28.5C18.1625 28.5 18.3128 28.4172 18.3949 28.2834L21.2103 23.6396H26.045C26.2075 23.6396 26.3578 23.5567 26.439 23.4221C26.5203 23.2884 26.5203 23.1227 26.439 22.9889L24.0212 19.0001L26.439 15.0114C26.5203 14.8768 26.5203 14.7119 26.439 14.5773C26.3578 14.4435 26.2075 14.3607 26.045 14.3607H21.2103L18.3949 9.71689C18.3076 9.57278 18.1416 9.48908 17.9677 9.50115ZM18 10.8017L20.1574 14.3605H15.8426L18 10.8017ZM10.7448 15.2287H14.2652L12.5054 18.1328L10.7448 15.2287ZM15.3173 15.2287H20.6841L22.97 18.9999L20.6841 22.7711H15.3173L13.0305 18.9999L15.3173 15.2287ZM21.7352 15.2287H25.2557L23.4958 18.1328L21.7352 15.2287ZM12.5043 19.8681L14.2642 22.7722H10.7437L12.5043 19.8681ZM23.4959 19.8681L25.2557 22.7722H21.7352L23.4959 19.8681ZM15.8423 23.6393H20.1571L17.9997 27.1981L15.8423 23.6393Z" fill="black" />
    <path d="M14.6994 0.5H22.3C22.7916 0.5 23.2415 0.697836 23.5661 1.01742L23.568 1.01932C23.8926 1.3389 24.0957 1.78023 24.0957 2.26341V8.97643L30.0086 5.62084L30.0409 5.60372C30.4623 5.37545 30.9387 5.3317 31.3696 5.44583C31.8119 5.56187 32.2105 5.84531 32.4592 6.26761L36.2594 12.7352C36.508 13.1575 36.5574 13.6369 36.4378 14.0725C36.3201 14.5081 36.0316 14.9 35.6045 15.1435L35.5779 15.1568L29.6879 18.4991L35.6027 21.8566L35.6331 21.8737C36.045 22.1191 36.3221 22.5033 36.4379 22.9257C36.5556 23.3613 36.5062 23.8425 36.2595 24.2629L36.2576 24.2648L36.2595 24.2668L32.4593 30.7343L32.4403 30.7629C32.1916 31.168 31.8025 31.4401 31.3697 31.5542C30.9293 31.6702 30.4434 31.6208 30.0163 31.3811L30.0087 31.3773V31.3792L24.0958 28.0236V34.7347C24.0958 35.2198 23.8927 35.6611 23.5681 35.9788L23.5662 35.9807L23.5681 35.9826C23.2435 36.3022 22.7936 36.5 22.3001 36.5H14.6995C14.206 36.5 13.758 36.3022 13.4315 35.9826C13.1069 35.663 12.9039 35.2217 12.9039 34.7366V28.0255L6.99095 31.3811L6.95868 31.3982C6.53728 31.6265 6.06271 31.6722 5.62993 31.558C5.18765 31.4401 4.78902 31.1585 4.54226 30.7381H4.54036L0.740178 24.2706L0.723094 24.2382C0.489615 23.8235 0.445959 23.3556 0.561748 22.9314C0.679437 22.4957 0.967963 22.1058 1.39504 21.8604L7.30988 18.5029L1.39504 15.1454V15.1473C0.966044 14.9038 0.679394 14.512 0.561748 14.0764C0.442163 13.6407 0.493415 13.1614 0.740179 12.7391L4.54036 6.27147C4.78903 5.84917 5.18763 5.56574 5.62993 5.44969C6.07222 5.33175 6.56196 5.38311 6.98906 5.6247L6.99095 5.62661V5.6247L12.9039 8.98029V2.26727C12.9039 1.78219 13.107 1.34088 13.4315 1.02128C13.758 0.701699 14.206 0.503863 14.6995 0.503863L14.6994 0.5ZM22.3 1.42828H14.6994C14.4659 1.42828 14.2534 1.52339 14.0996 1.67368C13.9458 1.82586 13.849 2.03511 13.849 2.26336V9.77941H13.8471C13.8471 9.85931 13.8262 9.9392 13.7826 10.0134C13.6516 10.2341 13.3631 10.3101 13.1372 10.1808L6.5163 6.42384V6.42193C6.31509 6.3078 6.08162 6.28688 5.87093 6.34204C5.65833 6.39911 5.47041 6.53226 5.35462 6.7282L1.55444 13.1958C1.43675 13.3936 1.41397 13.6238 1.47092 13.833C1.52786 14.0404 1.66453 14.2268 1.86764 14.341L1.86574 14.3429L8.45993 18.0846C8.54155 18.1246 8.60988 18.1855 8.65924 18.2673C8.79022 18.4879 8.71239 18.7733 8.48651 18.9007L1.86559 22.6577L1.86369 22.6558L1.8618 22.6577C1.66059 22.7718 1.52581 22.9582 1.46887 23.1656C1.41572 23.3672 1.4347 23.5879 1.541 23.7819L1.55239 23.8009L5.35258 30.2705H5.35068L5.35447 30.2743C5.47026 30.4702 5.65819 30.6034 5.86889 30.6585C6.0739 30.7118 6.29788 30.6928 6.49531 30.59L6.51429 30.5786L13.1065 26.8369C13.1825 26.7874 13.2736 26.757 13.3723 26.757C13.6323 26.757 13.8449 26.9643 13.8449 27.2211V34.7372C13.8449 34.9674 13.9398 35.1747 14.0955 35.3269C14.2493 35.479 14.4619 35.5723 14.6953 35.5723H22.2959C22.5294 35.5723 22.742 35.4771 22.8957 35.3269L22.8976 35.3288C23.0514 35.1766 23.1482 34.9673 23.1482 34.7372V27.2211H23.1501C23.1501 27.1412 23.1691 27.0613 23.2127 26.9891C23.3437 26.7684 23.6322 26.6923 23.8581 26.8198L30.479 30.5767L30.4771 30.5786C30.6783 30.6927 30.9118 30.7156 31.1225 30.6585C31.3275 30.6052 31.5116 30.4778 31.6274 30.2914L31.6388 30.2704L35.439 23.8009L35.4409 23.8028C35.5567 23.605 35.5795 23.3748 35.5225 23.1674C35.4675 22.9677 35.3384 22.7851 35.1486 22.671L35.1277 22.6596L28.5068 18.9026V18.9007C28.4385 18.8608 28.3777 18.8037 28.3341 18.7314C28.205 18.5088 28.2828 18.2273 28.5087 18.0998L35.1029 14.3581L35.1276 14.3429C35.3288 14.2287 35.4654 14.0423 35.5224 13.8349C35.5793 13.6276 35.5566 13.3974 35.4389 13.1977L31.6387 6.73009C31.5229 6.53225 31.3331 6.39909 31.1224 6.34393C30.9174 6.29066 30.6934 6.30969 30.4959 6.41241L30.477 6.42382L23.8847 10.1656C23.8088 10.215 23.7177 10.2455 23.619 10.2455C23.3589 10.2455 23.1482 10.0381 23.1482 9.78133V2.26528C23.1482 2.0351 23.0514 1.82585 22.8977 1.67369C22.7439 1.52342 22.5313 1.4283 22.2978 1.4283L22.3 1.42828Z" stroke="black" />
  </g>
</svg>
