<svg xmlns="http://www.w3.org/2000/svg" width="34.958" height="36" viewBox="0 0 34.958 36" fill="none">
  <g transform="translate(-1.5 -0.5)">
    <path d="M14.6994 0.5H22.3C22.7916 0.5 23.2415 0.697836 23.5661 1.01742L23.568 1.01932C23.8926 1.3389 24.0957 1.78023 24.0957 2.26341V8.97643L30.0086 5.62084L30.0409 5.60372C30.4623 5.37545 30.9387 5.3317 31.3696 5.44583C31.8119 5.56187 32.2105 5.84531 32.4592 6.26761L36.2594 12.7352C36.508 13.1575 36.5574 13.6369 36.4378 14.0725C36.3201 14.5081 36.0316 14.9 35.6045 15.1435L35.5779 15.1568L29.6879 18.4991L35.6027 21.8566L35.6331 21.8737C36.045 22.1191 36.3221 22.5033 36.4379 22.9257C36.5556 23.3613 36.5062 23.8425 36.2595 24.2629L36.2576 24.2648L36.2595 24.2668L32.4593 30.7343L32.4403 30.7629C32.1916 31.168 31.8025 31.4401 31.3697 31.5542C30.9293 31.6702 30.4434 31.6208 30.0163 31.3811L30.0087 31.3773V31.3792L24.0958 28.0236V34.7347C24.0958 35.2198 23.8927 35.6611 23.5681 35.9788L23.5662 35.9807L23.5681 35.9826C23.2435 36.3022 22.7936 36.5 22.3001 36.5H14.6995C14.206 36.5 13.758 36.3022 13.4315 35.9826C13.1069 35.663 12.9039 35.2217 12.9039 34.7366V28.0255L6.99095 31.3811L6.95868 31.3982C6.53728 31.6265 6.06271 31.6722 5.62993 31.558C5.18765 31.4401 4.78902 31.1585 4.54226 30.7381H4.54036L0.740178 24.2706L0.723094 24.2382C0.489615 23.8235 0.445959 23.3556 0.561748 22.9314C0.679437 22.4957 0.967963 22.1058 1.39504 21.8604L7.30988 18.5029L1.39504 15.1454V15.1473C0.966044 14.9038 0.679394 14.512 0.561748 14.0764C0.442163 13.6407 0.493415 13.1614 0.740179 12.7391L4.54036 6.27147C4.78903 5.84917 5.18763 5.56574 5.62993 5.44969C6.07222 5.33175 6.56196 5.38311 6.98906 5.6247L6.99095 5.62661V5.6247L12.9039 8.98029V2.26727C12.9039 1.78219 13.107 1.34088 13.4315 1.02128C13.758 0.701699 14.206 0.503863 14.6995 0.503863L14.6994 0.5ZM22.3 1.42828H14.6994C14.4659 1.42828 14.2534 1.52339 14.0996 1.67368C13.9458 1.82586 13.849 2.03511 13.849 2.26336V9.77941H13.8471C13.8471 9.85931 13.8262 9.9392 13.7826 10.0134C13.6516 10.2341 13.3631 10.3101 13.1372 10.1808L6.5163 6.42384V6.42193C6.31509 6.3078 6.08162 6.28688 5.87093 6.34204C5.65833 6.39911 5.47041 6.53226 5.35462 6.7282L1.55444 13.1958C1.43675 13.3936 1.41397 13.6238 1.47092 13.833C1.52786 14.0404 1.66453 14.2268 1.86764 14.341L1.86574 14.3429L8.45993 18.0846C8.54155 18.1246 8.60988 18.1855 8.65924 18.2673C8.79022 18.4879 8.71239 18.7733 8.48651 18.9007L1.86559 22.6577L1.86369 22.6558L1.8618 22.6577C1.66059 22.7718 1.52581 22.9582 1.46887 23.1656C1.41572 23.3672 1.4347 23.5879 1.541 23.7819L1.55239 23.8009L5.35258 30.2705H5.35068L5.35447 30.2743C5.47026 30.4702 5.65819 30.6034 5.86889 30.6585C6.0739 30.7118 6.29788 30.6928 6.49531 30.59L6.51429 30.5786L13.1065 26.8369C13.1825 26.7874 13.2736 26.757 13.3723 26.757C13.6323 26.757 13.8449 26.9643 13.8449 27.2211V34.7372C13.8449 34.9674 13.9398 35.1747 14.0955 35.3269C14.2493 35.479 14.4619 35.5723 14.6953 35.5723H22.2959C22.5294 35.5723 22.742 35.4771 22.8957 35.3269L22.8976 35.3288C23.0514 35.1766 23.1482 34.9673 23.1482 34.7372V27.2211H23.1501C23.1501 27.1412 23.1691 27.0613 23.2127 26.9891C23.3437 26.7684 23.6322 26.6923 23.8581 26.8198L30.479 30.5767L30.4771 30.5786C30.6783 30.6927 30.9118 30.7156 31.1225 30.6585C31.3275 30.6052 31.5116 30.4778 31.6274 30.2914L31.6388 30.2704L35.439 23.8009L35.4409 23.8028C35.5567 23.605 35.5795 23.3748 35.5225 23.1674C35.4675 22.9677 35.3384 22.7851 35.1486 22.671L35.1277 22.6596L28.5068 18.9026V18.9007C28.4385 18.8608 28.3777 18.8037 28.3341 18.7314C28.205 18.5088 28.2828 18.2273 28.5087 18.0998L35.1029 14.3581L35.1276 14.3429C35.3288 14.2287 35.4654 14.0423 35.5224 13.8349C35.5793 13.6276 35.5566 13.3974 35.4389 13.1977L31.6387 6.73009C31.5229 6.53225 31.3331 6.39909 31.1224 6.34393C30.9174 6.29066 30.6934 6.30969 30.4959 6.41241L30.477 6.42382L23.8847 10.1656C23.8088 10.215 23.7177 10.2455 23.619 10.2455C23.3589 10.2455 23.1482 10.0381 23.1482 9.78133V2.26528C23.1482 2.0351 23.0514 1.82585 22.8977 1.67369C22.7439 1.52342 22.5313 1.4283 22.2978 1.4283L22.3 1.42828Z" stroke="black" />
  </g>
  <g transform="translate(10 11)">
    <path d="M12.2909 2.09966C10.9902 0.80358 9.18594 -0.000764631 7.2 7.62075e-07C5.21406 7.62075e-07 3.40969 0.803503 2.1091 2.09966C0.806923 3.39499 0 5.19183 0 7.1696C0 9.14738 0.806827 10.9443 2.1091 12.2396C3.40978 13.5356 5.21406 14.34 7.2 14.3392C9.18594 14.3392 10.9903 13.5357 12.2909 12.2396C13.5923 10.9442 14.4 9.14738 14.4 7.1696C14.4 5.19183 13.5924 3.39489 12.2909 2.09966ZM11.325 11.2776C10.5354 12.0632 9.52516 12.623 8.39254 12.857C7.77561 12.4026 7.81988 11.3569 7.81988 11.3569L8.00751 9.33434C7.75608 9.42777 7.48438 9.48159 7.20068 9.48159C6.91697 9.48159 6.64529 9.42777 6.39386 9.33434L6.58074 11.3561C6.58074 11.3561 6.62502 12.4018 6.00807 12.8562C4.87551 12.6223 3.86535 12.0617 3.07566 11.2769C2.13222 10.3358 1.51304 9.08022 1.3907 7.67859C1.6714 7.51938 2.04968 7.44388 2.3484 7.41026C2.62085 7.37887 2.89555 7.39905 3.15974 7.47081L5.02632 7.97459C4.93251 7.72344 4.87847 7.45286 4.87847 7.16959C4.87847 6.88779 4.93175 6.61946 5.02482 6.36981C4.47018 6.32945 3.54175 6.25246 2.9015 6.14632C2.20425 6.03046 1.85825 5.47287 1.72016 5.1724C2.01436 4.37187 2.48045 3.65432 3.07564 3.06164C4.13315 2.00923 5.58765 1.36045 7.20065 1.36045C8.81356 1.36045 10.2681 2.00923 11.3257 3.06164C11.9201 3.65438 12.3869 4.37193 12.6812 5.1724C12.5423 5.47362 12.1971 6.03048 11.4998 6.14632C10.8604 6.25246 9.93192 6.32944 9.37649 6.36981C9.46955 6.61946 9.52284 6.88779 9.52284 7.16959C9.52284 7.45288 9.4688 7.72344 9.37499 7.97459L11.2416 7.47081C11.5058 7.3998 11.7812 7.37962 12.0529 7.41026C12.3516 7.44465 12.7306 7.52014 13.0106 7.67859C12.8875 9.08081 12.2684 10.3366 11.325 11.2776Z" fill="black" />
    <path d="M7.20024 5.19699C6.38291 5.19699 5.68191 5.6903 5.37868 6.39366C5.2766 6.6321 5.21956 6.89371 5.21956 7.16952C5.21956 7.50139 5.30287 7.81382 5.44848 8.08814C5.64888 8.46561 5.96859 8.76981 6.35814 8.95219C6.61406 9.07253 6.89852 9.14129 7.20024 9.14129C7.50195 9.14129 7.78641 9.07253 8.04234 8.95219C8.43187 8.76981 8.7516 8.46559 8.952 8.08814C9.09761 7.81382 9.18092 7.50139 9.18092 7.16952C9.18092 6.89445 9.12388 6.6321 9.0218 6.39366C8.71859 5.6903 8.01758 5.19699 7.20024 5.19699Z" fill="black" />
  </g>
</svg>
